%TF.GenerationSoftware,KiCad,Pcbnew,8.0.7*%
%TF.CreationDate,2025-05-18T22:23:59+09:00*%
%TF.ProjectId,cool436,636f6f6c-3433-4362-9e6b-696361645f70,rev?*%
%TF.SameCoordinates,Original*%
%TF.FileFunction,Copper,L2,Bot*%
%TF.FilePolarity,Positive*%
%FSLAX46Y46*%
G04 Gerber Fmt 4.6, Leading zero omitted, Abs format (unit mm)*
G04 Created by KiCad (PCBNEW 8.0.7) date 2025-05-18 22:23:59*
%MOMM*%
%LPD*%
G01*
G04 APERTURE LIST*
%TA.AperFunction,ComponentPad*%
%ADD10O,2.200000X1.500000*%
%TD*%
%TA.AperFunction,SMDPad,CuDef*%
%ADD11R,2.600000X2.600000*%
%TD*%
%TA.AperFunction,SMDPad,CuDef*%
%ADD12R,1.300000X0.950000*%
%TD*%
%TA.AperFunction,ComponentPad*%
%ADD13O,1.000000X1.300000*%
%TD*%
%TA.AperFunction,ComponentPad*%
%ADD14R,2.000000X2.000000*%
%TD*%
%TA.AperFunction,ComponentPad*%
%ADD15C,2.000000*%
%TD*%
%TA.AperFunction,ComponentPad*%
%ADD16O,2.750000X1.800000*%
%TD*%
%TA.AperFunction,ComponentPad*%
%ADD17C,1.500000*%
%TD*%
%TA.AperFunction,ComponentPad*%
%ADD18C,1.524000*%
%TD*%
%TA.AperFunction,ViaPad*%
%ADD19C,0.600000*%
%TD*%
%TA.AperFunction,Conductor*%
%ADD20C,0.500000*%
%TD*%
G04 APERTURE END LIST*
D10*
%TO.P,SW6,*%
%TO.N,*%
X41470000Y-29340000D03*
D11*
%TO.P,SW6,1,1*%
%TO.N,Col1*%
X27620000Y-38040000D03*
%TO.P,SW6,2,2*%
%TO.N,Net-(D6-A)*%
X39220000Y-40240000D03*
%TD*%
D10*
%TO.P,SW22,*%
%TO.N,*%
X134470000Y-29340000D03*
D11*
%TO.P,SW22,1,1*%
%TO.N,col5*%
X120620000Y-38040000D03*
%TO.P,SW22,2,2*%
%TO.N,Net-(D22-A)*%
X132220000Y-40240000D03*
%TD*%
D10*
%TO.P,SW14,*%
%TO.N,*%
X77470000Y-29340000D03*
D11*
%TO.P,SW14,1,1*%
%TO.N,Col3*%
X63620000Y-38040000D03*
%TO.P,SW14,2,2*%
%TO.N,Net-(D14-A)*%
X75220000Y-40240000D03*
%TD*%
D12*
%TO.P,D6,1,K*%
%TO.N,Row1*%
X41175000Y-43360000D03*
%TO.P,D6,2,A*%
%TO.N,Net-(D6-A)*%
X44725000Y-43360000D03*
%TD*%
D10*
%TO.P,SW13,*%
%TO.N,*%
X73220000Y-11340000D03*
D11*
%TO.P,SW13,1,1*%
%TO.N,Col3*%
X59370000Y-20040000D03*
%TO.P,SW13,2,2*%
%TO.N,Net-(D13-A)*%
X70970000Y-22240000D03*
%TD*%
D10*
%TO.P,SW24,*%
%TO.N,*%
X184170000Y-65340000D03*
D11*
%TO.P,SW24,1,1*%
%TO.N,col5*%
X170320000Y-74040000D03*
%TO.P,SW24,2,2*%
%TO.N,Net-(D24-A)*%
X181920000Y-76240000D03*
%TD*%
D12*
%TO.P,D7,1,K*%
%TO.N,Row2*%
X47005000Y-61390000D03*
%TO.P,D7,2,A*%
%TO.N,Net-(D7-A)*%
X50555000Y-61390000D03*
%TD*%
D10*
%TO.P,SW27,*%
%TO.N,*%
X152470000Y-29340000D03*
D11*
%TO.P,SW27,1,1*%
%TO.N,col6*%
X138620000Y-38040000D03*
%TO.P,SW27,2,2*%
%TO.N,Net-(D27-A)*%
X150220000Y-40240000D03*
%TD*%
D12*
%TO.P,D27,1,K*%
%TO.N,Row2*%
X138145000Y-43340000D03*
%TO.P,D27,2,A*%
%TO.N,Net-(D27-A)*%
X141695000Y-43340000D03*
%TD*%
%TO.P,D33,1,K*%
%TO.N,Row0*%
X170925000Y-25330000D03*
%TO.P,D33,2,A*%
%TO.N,Net-(D33-A)*%
X174475000Y-25330000D03*
%TD*%
%TO.P,D18,1,K*%
%TO.N,Row1*%
X95165000Y-43310000D03*
%TO.P,D18,2,A*%
%TO.N,Net-(D18-A)*%
X98715000Y-43310000D03*
%TD*%
D10*
%TO.P,SW23,*%
%TO.N,*%
X142970000Y-47340000D03*
D11*
%TO.P,SW23,1,1*%
%TO.N,col5*%
X129120000Y-56040000D03*
%TO.P,SW23,2,2*%
%TO.N,Net-(D23-A)*%
X140720000Y-58240000D03*
%TD*%
D12*
%TO.P,D4,1,K*%
%TO.N,Row3*%
X53365000Y-61470000D03*
%TO.P,D4,2,A*%
%TO.N,Net-(D4-A)*%
X56915000Y-61470000D03*
%TD*%
D10*
%TO.P,SW3,*%
%TO.N,*%
X31970000Y-47340000D03*
D11*
%TO.P,SW3,1,1*%
%TO.N,Col0*%
X18120000Y-56040000D03*
%TO.P,SW3,2,2*%
%TO.N,Net-(D3-A)*%
X29720000Y-58240000D03*
%TD*%
D10*
%TO.P,SW34,*%
%TO.N,*%
X202220000Y-11340000D03*
D11*
%TO.P,SW34,1,1*%
%TO.N,col8*%
X188370000Y-20040000D03*
%TO.P,SW34,2,2*%
%TO.N,Net-(D34-A)*%
X199970000Y-22240000D03*
%TD*%
D10*
%TO.P,SW26,*%
%TO.N,*%
X170470000Y-29340000D03*
D11*
%TO.P,SW26,1,1*%
%TO.N,col6*%
X156620000Y-38040000D03*
%TO.P,SW26,2,2*%
%TO.N,Net-(D26-A)*%
X168220000Y-40240000D03*
%TD*%
D10*
%TO.P,SW4,*%
%TO.N,*%
X52770000Y-65340000D03*
D11*
%TO.P,SW4,1,1*%
%TO.N,Col0*%
X38920000Y-74040000D03*
%TO.P,SW4,2,2*%
%TO.N,Net-(D4-A)*%
X50520000Y-76240000D03*
%TD*%
D12*
%TO.P,D22,1,K*%
%TO.N,Row1*%
X120080000Y-43350000D03*
%TO.P,D22,2,A*%
%TO.N,Net-(D22-A)*%
X123630000Y-43350000D03*
%TD*%
%TO.P,D26,1,K*%
%TO.N,Row1*%
X157085000Y-43320000D03*
%TO.P,D26,2,A*%
%TO.N,Net-(D26-A)*%
X160635000Y-43320000D03*
%TD*%
D13*
%TO.P,SW45,1,A*%
%TO.N,unconnected-(SW45-A-Pad1)*%
X216560000Y-12290000D03*
%TO.P,SW45,2,B*%
%TO.N,Net-(BT1--)*%
X216560000Y-14790000D03*
%TO.P,SW45,3,C*%
%TO.N,GND*%
X216560000Y-17290000D03*
%TD*%
D12*
%TO.P,D23,1,K*%
%TO.N,Row2*%
X129465000Y-61310000D03*
%TO.P,D23,2,A*%
%TO.N,Net-(D23-A)*%
X133015000Y-61310000D03*
%TD*%
D10*
%TO.P,SW20,*%
%TO.N,*%
X166170000Y-65340000D03*
D11*
%TO.P,SW20,1,1*%
%TO.N,Col4*%
X152320000Y-74040000D03*
%TO.P,SW20,2,2*%
%TO.N,Net-(D20-A)*%
X163920000Y-76240000D03*
%TD*%
D10*
%TO.P,SW12,*%
%TO.N,*%
X93670000Y-65340000D03*
D11*
%TO.P,SW12,1,1*%
%TO.N,Col2*%
X79820000Y-74040000D03*
%TO.P,SW12,2,2*%
%TO.N,Net-(D12-A)*%
X91420000Y-76240000D03*
%TD*%
D10*
%TO.P,SW33,*%
%TO.N,*%
X184220000Y-11340000D03*
D11*
%TO.P,SW33,1,1*%
%TO.N,col8*%
X170370000Y-20040000D03*
%TO.P,SW33,2,2*%
%TO.N,Net-(D33-A)*%
X181970000Y-22240000D03*
%TD*%
D12*
%TO.P,D32,1,K*%
%TO.N,Row3*%
X165655000Y-61340000D03*
%TO.P,D32,2,A*%
%TO.N,Net-(D32-A)*%
X169205000Y-61340000D03*
%TD*%
D10*
%TO.P,SW1,*%
%TO.N,*%
X19220000Y-11340000D03*
D11*
%TO.P,SW1,1,1*%
%TO.N,Col0*%
X5370000Y-20040000D03*
%TO.P,SW1,2,2*%
%TO.N,Net-(D1-A)*%
X16970000Y-22240000D03*
%TD*%
D10*
%TO.P,SW29,*%
%TO.N,*%
X166220000Y-11340000D03*
D11*
%TO.P,SW29,1,1*%
%TO.N,col7*%
X152370000Y-20040000D03*
%TO.P,SW29,2,2*%
%TO.N,Net-(D29-A)*%
X163970000Y-22240000D03*
%TD*%
D10*
%TO.P,SW31,*%
%TO.N,*%
X196970000Y-47340000D03*
D11*
%TO.P,SW31,1,1*%
%TO.N,col7*%
X183120000Y-56040000D03*
%TO.P,SW31,2,2*%
%TO.N,Net-(D31-A)*%
X194720000Y-58240000D03*
%TD*%
D14*
%TO.P,BT1,1,+*%
%TO.N,Net-(BT1-+)*%
X167170000Y-25290000D03*
D15*
%TO.P,BT1,2,-*%
%TO.N,Net-(BT1--)*%
X211970000Y-25290000D03*
%TD*%
D12*
%TO.P,D35,1,K*%
%TO.N,Row2*%
X192025000Y-43320000D03*
%TO.P,D35,2,A*%
%TO.N,Net-(D35-A)*%
X195575000Y-43320000D03*
%TD*%
%TO.P,D19,1,K*%
%TO.N,Row2*%
X104020000Y-61140000D03*
%TO.P,D19,2,A*%
%TO.N,Net-(D19-A)*%
X107570000Y-61140000D03*
%TD*%
D10*
%TO.P,SW35,*%
%TO.N,*%
X206470000Y-29340000D03*
D11*
%TO.P,SW35,1,1*%
%TO.N,col8*%
X192620000Y-38040000D03*
%TO.P,SW35,2,2*%
%TO.N,Net-(D35-A)*%
X204220000Y-40240000D03*
%TD*%
D12*
%TO.P,D1,1,K*%
%TO.N,Row0*%
X17675000Y-25330000D03*
%TO.P,D1,2,A*%
%TO.N,Net-(D1-A)*%
X21225000Y-25330000D03*
%TD*%
%TO.P,D5,1,K*%
%TO.N,Row0*%
X36945000Y-25340000D03*
%TO.P,D5,2,A*%
%TO.N,Net-(D5-A)*%
X40495000Y-25340000D03*
%TD*%
%TO.P,D10,1,K*%
%TO.N,Row1*%
X59215000Y-43310000D03*
%TO.P,D10,2,A*%
%TO.N,Net-(D10-A)*%
X62765000Y-43310000D03*
%TD*%
D10*
%TO.P,SW9,*%
%TO.N,*%
X55220000Y-11340000D03*
D11*
%TO.P,SW9,1,1*%
%TO.N,Col2*%
X41370000Y-20040000D03*
%TO.P,SW9,2,2*%
%TO.N,Net-(D9-A)*%
X52970000Y-22240000D03*
%TD*%
D10*
%TO.P,SW19,*%
%TO.N,*%
X103970000Y-47340000D03*
D11*
%TO.P,SW19,1,1*%
%TO.N,Col4*%
X90120000Y-56040000D03*
%TO.P,SW19,2,2*%
%TO.N,Net-(D19-A)*%
X101720000Y-58240000D03*
%TD*%
D12*
%TO.P,D14,1,K*%
%TO.N,Row1*%
X76135000Y-43330000D03*
%TO.P,D14,2,A*%
%TO.N,Net-(D14-A)*%
X79685000Y-43330000D03*
%TD*%
%TO.P,D31,1,K*%
%TO.N,Row2*%
X183705000Y-61360000D03*
%TO.P,D31,2,A*%
%TO.N,Net-(D31-A)*%
X187255000Y-61360000D03*
%TD*%
%TO.P,D15,1,K*%
%TO.N,Row2*%
X84655000Y-61330000D03*
%TO.P,D15,2,A*%
%TO.N,Net-(D15-A)*%
X88205000Y-61330000D03*
%TD*%
%TO.P,D3,1,K*%
%TO.N,Row2*%
X30695000Y-61420000D03*
%TO.P,D3,2,A*%
%TO.N,Net-(D3-A)*%
X34245000Y-61420000D03*
%TD*%
%TO.P,D12,1,K*%
%TO.N,Row3*%
X90815000Y-61300000D03*
%TO.P,D12,2,A*%
%TO.N,Net-(D12-A)*%
X94365000Y-61300000D03*
%TD*%
D10*
%TO.P,SW15,*%
%TO.N,*%
X85970000Y-47340000D03*
D11*
%TO.P,SW15,1,1*%
%TO.N,Col3*%
X72120000Y-56040000D03*
%TO.P,SW15,2,2*%
%TO.N,Net-(D15-A)*%
X83720000Y-58240000D03*
%TD*%
D14*
%TO.P,BT2,1,+*%
%TO.N,Bat*%
X9630000Y-25560000D03*
D15*
%TO.P,BT2,2,-*%
%TO.N,Net-(BT1-+)*%
X54430000Y-25560000D03*
%TD*%
D12*
%TO.P,D8,1,K*%
%TO.N,Row3*%
X73505000Y-61280000D03*
%TO.P,D8,2,A*%
%TO.N,Net-(D8-A)*%
X77055000Y-61280000D03*
%TD*%
%TO.P,D25,1,K*%
%TO.N,Row0*%
X146935000Y-25310000D03*
%TO.P,D25,2,A*%
%TO.N,Net-(D25-A)*%
X150485000Y-25310000D03*
%TD*%
D10*
%TO.P,SW2,*%
%TO.N,*%
X23470000Y-29340000D03*
D11*
%TO.P,SW2,1,1*%
%TO.N,Col0*%
X9620000Y-38040000D03*
%TO.P,SW2,2,2*%
%TO.N,Net-(D2-A)*%
X21220000Y-40240000D03*
%TD*%
D10*
%TO.P,SW8,*%
%TO.N,*%
X70770000Y-65340000D03*
D11*
%TO.P,SW8,1,1*%
%TO.N,Col1*%
X56920000Y-74040000D03*
%TO.P,SW8,2,2*%
%TO.N,Net-(D8-A)*%
X68520000Y-76240000D03*
%TD*%
D10*
%TO.P,SW16,*%
%TO.N,*%
X143270000Y-65340000D03*
D11*
%TO.P,SW16,1,1*%
%TO.N,Col3*%
X129420000Y-74040000D03*
%TO.P,SW16,2,2*%
%TO.N,Net-(D16-A)*%
X141020000Y-76240000D03*
%TD*%
D10*
%TO.P,SW17,*%
%TO.N,*%
X91220000Y-11340000D03*
D11*
%TO.P,SW17,1,1*%
%TO.N,Col4*%
X77370000Y-20040000D03*
%TO.P,SW17,2,2*%
%TO.N,Net-(D17-A)*%
X88970000Y-22240000D03*
%TD*%
D12*
%TO.P,D2,1,K*%
%TO.N,Row1*%
X23275000Y-43280000D03*
%TO.P,D2,2,A*%
%TO.N,Net-(D2-A)*%
X26825000Y-43280000D03*
%TD*%
%TO.P,D13,1,K*%
%TO.N,Row0*%
X72935000Y-25300000D03*
%TO.P,D13,2,A*%
%TO.N,Net-(D13-A)*%
X76485000Y-25300000D03*
%TD*%
D10*
%TO.P,SW36,*%
%TO.N,*%
X214970000Y-47340000D03*
D11*
%TO.P,SW36,1,1*%
%TO.N,col8*%
X201120000Y-56040000D03*
%TO.P,SW36,2,2*%
%TO.N,Net-(D36-A)*%
X212720000Y-58240000D03*
%TD*%
D12*
%TO.P,D20,1,K*%
%TO.N,Row3*%
X159375000Y-61240000D03*
%TO.P,D20,2,A*%
%TO.N,Net-(D20-A)*%
X162925000Y-61240000D03*
%TD*%
D10*
%TO.P,SW32,*%
%TO.N,*%
X178970000Y-47340000D03*
D11*
%TO.P,SW32,1,1*%
%TO.N,col7*%
X165120000Y-56040000D03*
%TO.P,SW32,2,2*%
%TO.N,Net-(D32-A)*%
X176720000Y-58240000D03*
%TD*%
D10*
%TO.P,SW7,*%
%TO.N,*%
X49970000Y-47340000D03*
D11*
%TO.P,SW7,1,1*%
%TO.N,Col1*%
X36120000Y-56040000D03*
%TO.P,SW7,2,2*%
%TO.N,Net-(D7-A)*%
X47720000Y-58240000D03*
%TD*%
D12*
%TO.P,D24,1,K*%
%TO.N,Row3*%
X177585000Y-61330000D03*
%TO.P,D24,2,A*%
%TO.N,Net-(D24-A)*%
X181135000Y-61330000D03*
%TD*%
D10*
%TO.P,SW21,*%
%TO.N,*%
X130220000Y-11340000D03*
D11*
%TO.P,SW21,1,1*%
%TO.N,col5*%
X116370000Y-20040000D03*
%TO.P,SW21,2,2*%
%TO.N,Net-(D21-A)*%
X127970000Y-22240000D03*
%TD*%
D12*
%TO.P,D30,1,K*%
%TO.N,Row1*%
X175145000Y-43380000D03*
%TO.P,D30,2,A*%
%TO.N,Net-(D30-A)*%
X178695000Y-43380000D03*
%TD*%
%TO.P,D17,1,K*%
%TO.N,Row0*%
X78815000Y-25290000D03*
%TO.P,D17,2,A*%
%TO.N,Net-(D17-A)*%
X82365000Y-25290000D03*
%TD*%
%TO.P,D28,1,K*%
%TO.N,Row3*%
X148215000Y-61310000D03*
%TO.P,D28,2,A*%
%TO.N,Net-(D28-A)*%
X151765000Y-61310000D03*
%TD*%
D10*
%TO.P,SW5,*%
%TO.N,*%
X37220000Y-11340000D03*
D11*
%TO.P,SW5,1,1*%
%TO.N,Col1*%
X23370000Y-20040000D03*
%TO.P,SW5,2,2*%
%TO.N,Net-(D5-A)*%
X34970000Y-22240000D03*
%TD*%
D10*
%TO.P,SW11,*%
%TO.N,*%
X67970000Y-47340000D03*
D11*
%TO.P,SW11,1,1*%
%TO.N,Col2*%
X54120000Y-56040000D03*
%TO.P,SW11,2,2*%
%TO.N,Net-(D11-A)*%
X65720000Y-58240000D03*
%TD*%
D12*
%TO.P,D34,1,K*%
%TO.N,Row1*%
X187935000Y-25380000D03*
%TO.P,D34,2,A*%
%TO.N,Net-(D34-A)*%
X191485000Y-25380000D03*
%TD*%
%TO.P,D36,1,K*%
%TO.N,Row3*%
X200595000Y-61280000D03*
%TO.P,D36,2,A*%
%TO.N,Net-(D36-A)*%
X204145000Y-61280000D03*
%TD*%
%TO.P,D16,1,K*%
%TO.N,Row3*%
X141460000Y-61280000D03*
%TO.P,D16,2,A*%
%TO.N,Net-(D16-A)*%
X145010000Y-61280000D03*
%TD*%
%TO.P,D29,1,K*%
%TO.N,Row0*%
X152995000Y-25290000D03*
%TO.P,D29,2,A*%
%TO.N,Net-(D29-A)*%
X156545000Y-25290000D03*
%TD*%
%TO.P,D9,1,K*%
%TO.N,Row0*%
X57235000Y-25260000D03*
%TO.P,D9,2,A*%
%TO.N,Net-(D9-A)*%
X60785000Y-25260000D03*
%TD*%
D15*
%TO.P,SW46,1,1*%
%TO.N,RST*%
X104780000Y-33250000D03*
%TO.P,SW46,2,2*%
%TO.N,GND*%
X111280000Y-33250000D03*
%TD*%
D12*
%TO.P,D21,1,K*%
%TO.N,Row0*%
X128875000Y-25280000D03*
%TO.P,D21,2,A*%
%TO.N,Net-(D21-A)*%
X132425000Y-25280000D03*
%TD*%
%TO.P,D11,1,K*%
%TO.N,Row2*%
X65770000Y-61350000D03*
%TO.P,D11,2,A*%
%TO.N,Net-(D11-A)*%
X69320000Y-61350000D03*
%TD*%
D10*
%TO.P,SW30,*%
%TO.N,*%
X188470000Y-29340000D03*
D11*
%TO.P,SW30,1,1*%
%TO.N,col7*%
X174620000Y-38040000D03*
%TO.P,SW30,2,2*%
%TO.N,Net-(D30-A)*%
X186220000Y-40240000D03*
%TD*%
D10*
%TO.P,SW18,*%
%TO.N,*%
X95470000Y-29340000D03*
D11*
%TO.P,SW18,1,1*%
%TO.N,Col4*%
X81620000Y-38040000D03*
%TO.P,SW18,2,2*%
%TO.N,Net-(D18-A)*%
X93220000Y-40240000D03*
%TD*%
D10*
%TO.P,SW28,*%
%TO.N,*%
X160970000Y-47340000D03*
D11*
%TO.P,SW28,1,1*%
%TO.N,col6*%
X147120000Y-56040000D03*
%TO.P,SW28,2,2*%
%TO.N,Net-(D28-A)*%
X158720000Y-58240000D03*
%TD*%
D10*
%TO.P,SW10,*%
%TO.N,*%
X59470000Y-29340000D03*
D11*
%TO.P,SW10,1,1*%
%TO.N,Col2*%
X45620000Y-38040000D03*
%TO.P,SW10,2,2*%
%TO.N,Net-(D10-A)*%
X57220000Y-40240000D03*
%TD*%
D10*
%TO.P,SW25,*%
%TO.N,*%
X148220000Y-11340000D03*
D11*
%TO.P,SW25,1,1*%
%TO.N,col6*%
X134370000Y-20040000D03*
%TO.P,SW25,2,2*%
%TO.N,Net-(D25-A)*%
X145970000Y-22240000D03*
%TD*%
D16*
%TO.P,U1,1,P0.02_A0_D0*%
%TO.N,col8*%
X113160000Y-9804000D03*
%TO.P,U1,2,P0.03_A1_D1*%
%TO.N,col7*%
X113160000Y-12344000D03*
%TO.P,U1,3,P0.28_A2_D2*%
%TO.N,col6*%
X113160000Y-14884000D03*
%TO.P,U1,4,P0.29_A3_D3*%
%TO.N,col5*%
X113160000Y-17424000D03*
%TO.P,U1,5,P0.04_A4_D4_SDA*%
%TO.N,Col4*%
X113160000Y-19964000D03*
%TO.P,U1,6,P0.05_A5_D5_SCL*%
%TO.N,Row0*%
X113160000Y-22504000D03*
%TO.P,U1,7,P1.11_D6_TX*%
%TO.N,Row1*%
X113160000Y-25044000D03*
%TO.P,U1,8,P1.12_D7_RX*%
%TO.N,Col3*%
X96920000Y-25044000D03*
%TO.P,U1,9,P1.13_D8_SCK*%
%TO.N,Col2*%
X96920000Y-22504000D03*
%TO.P,U1,10,P1.14_D9_MISO*%
%TO.N,Col1*%
X96920000Y-19964000D03*
%TO.P,U1,11,P1.15_D10_MOSI*%
%TO.N,Col0*%
X96920000Y-17424000D03*
%TO.P,U1,12,3V3*%
%TO.N,unconnected-(U1-3V3-Pad12)*%
X96920000Y-14884000D03*
%TO.P,U1,13,GND*%
%TO.N,GND*%
X96920000Y-12344000D03*
%TO.P,U1,14,5V*%
%TO.N,VCC*%
X96920000Y-9804000D03*
D17*
%TO.P,U1,15,NFC1_0.09*%
%TO.N,Row2*%
X101204600Y-26736000D03*
%TO.P,U1,16,NFC2_0.10*%
%TO.N,Row3*%
X99325000Y-26736000D03*
%TO.P,U1,20,BATT+*%
%TO.N,Bat*%
X109485000Y-17107000D03*
%TO.P,U1,21,BATT-*%
%TO.N,GND*%
X109485000Y-15202000D03*
D18*
%TO.P,U1,22,RST*%
%TO.N,RST*%
X106920000Y-11354000D03*
%TO.P,U1,23,GND*%
%TO.N,GND*%
X103200000Y-11414000D03*
%TD*%
D19*
%TO.N,Net-(BT1-+)*%
X54430000Y-30540000D03*
X167130000Y-30250000D03*
%TO.N,Bat*%
X109940000Y-29320000D03*
X9650000Y-27920000D03*
%TO.N,Row2*%
X65750000Y-63790000D03*
%TO.N,Col3*%
X68690000Y-72080000D03*
X129450000Y-76940000D03*
%TO.N,Row3*%
X159370000Y-66620000D03*
X168450000Y-66620000D03*
X177580000Y-66620000D03*
X200620000Y-66650000D03*
X148220000Y-66620000D03*
X141390000Y-64820000D03*
X114880000Y-64790000D03*
X114950000Y-29130000D03*
%TO.N,Row2*%
X101210000Y-45260000D03*
X138145000Y-45120000D03*
%TO.N,Row0*%
X117550000Y-31190000D03*
X117570188Y-27070000D03*
X79080000Y-31250000D03*
%TO.N,Row1*%
X112700000Y-46010000D03*
%TO.N,Col4*%
X108840000Y-19964000D03*
%TO.N,RST*%
X101340000Y-13520000D03*
X107660000Y-13520000D03*
%TO.N,Col4*%
X108820000Y-67540000D03*
%TO.N,Col3*%
X63620000Y-27910000D03*
%TO.N,Col2*%
X41260000Y-9570000D03*
%TO.N,Col1*%
X23380000Y-8830000D03*
%TO.N,Col0*%
X5360000Y-7880000D03*
%TO.N,col5*%
X116390000Y-17460000D03*
%TO.N,col6*%
X134240000Y-13030000D03*
%TO.N,col7*%
X152380000Y-9700000D03*
%TO.N,GND*%
X109470000Y-7830000D03*
X102180000Y-7820000D03*
%TO.N,Net-(BT1--)*%
X211940000Y-14800000D03*
%TO.N,Row1*%
X189300000Y-44780000D03*
%TO.N,Row2*%
X143190000Y-63510000D03*
X192030000Y-45950000D03*
X138090000Y-48650000D03*
X129500000Y-63440000D03*
X183700000Y-63510000D03*
%TO.N,Row1*%
X157030000Y-45870000D03*
X175180000Y-45850000D03*
X120060000Y-45870000D03*
%TO.N,Row0*%
X146940000Y-27070000D03*
X153000000Y-27070000D03*
X170930000Y-27060000D03*
X128890000Y-27070000D03*
%TO.N,Row2*%
X46980000Y-63790000D03*
%TO.N,Row3*%
X53380000Y-59970000D03*
X73490000Y-60000000D03*
X73500000Y-65010000D03*
X90830000Y-64950000D03*
%TO.N,Row2*%
X84680000Y-63790000D03*
X104030000Y-63820000D03*
X30720000Y-63790000D03*
%TO.N,Row1*%
X41170000Y-46010000D03*
X59230000Y-46010000D03*
X76140000Y-46010000D03*
X95190000Y-46010000D03*
X23270000Y-45670000D03*
%TO.N,Row0*%
X36970000Y-27010000D03*
X57260000Y-27010000D03*
X72900000Y-27010000D03*
X78840000Y-27000000D03*
X17640000Y-26700000D03*
%TO.N,col8*%
X188410000Y-13510000D03*
X170390000Y-14100000D03*
%TO.N,col7*%
X165070000Y-48790000D03*
X173760000Y-48790000D03*
X183200000Y-48860000D03*
X154090000Y-48790000D03*
%TO.N,col6*%
X156600000Y-31580000D03*
X138620000Y-31520000D03*
%TO.N,col5*%
X170340000Y-78350000D03*
X127440000Y-78390000D03*
%TO.N,Col4*%
X152370000Y-67540000D03*
X89750000Y-67270000D03*
%TO.N,Col2*%
X79850000Y-67350000D03*
X55340000Y-65700000D03*
%TO.N,Col1*%
X36020000Y-67110000D03*
X58130000Y-67160000D03*
%TD*%
D20*
%TO.N,Net-(BT1-+)*%
X54430000Y-30540000D02*
X54430000Y-25560000D01*
X167170000Y-25290000D02*
X167170000Y-30210000D01*
X167170000Y-30210000D02*
X167130000Y-30250000D01*
%TO.N,Bat*%
X109940000Y-29320000D02*
X109940000Y-28990000D01*
X109970000Y-28960000D02*
X109970000Y-17592000D01*
X109940000Y-28990000D02*
X109970000Y-28960000D01*
X109970000Y-17592000D02*
X109485000Y-17107000D01*
X9630000Y-25560000D02*
X9630000Y-27900000D01*
X9630000Y-27900000D02*
X9650000Y-27920000D01*
%TO.N,Net-(D11-A)*%
X65720000Y-58240000D02*
X66210000Y-58240000D01*
X66210000Y-58240000D02*
X69320000Y-61350000D01*
%TO.N,Row2*%
X65770000Y-61350000D02*
X65770000Y-63770000D01*
X65770000Y-63770000D02*
X65750000Y-63790000D01*
%TO.N,Col3*%
X68690000Y-72080000D02*
X68690000Y-70300000D01*
X72120000Y-56040000D02*
X72325000Y-56245000D01*
X72325000Y-56245000D02*
X72325000Y-66665000D01*
X72325000Y-66665000D02*
X68690000Y-70300000D01*
X129420000Y-76910000D02*
X129450000Y-76940000D01*
X129420000Y-74040000D02*
X129420000Y-76910000D01*
%TO.N,Row3*%
X159375000Y-66615000D02*
X159370000Y-66620000D01*
X159375000Y-61240000D02*
X159375000Y-66615000D01*
X168450000Y-64135000D02*
X168450000Y-66620000D01*
X165655000Y-61340000D02*
X168450000Y-64135000D01*
X177585000Y-66615000D02*
X177580000Y-66620000D01*
X177585000Y-61330000D02*
X177585000Y-66615000D01*
X200620000Y-66650000D02*
X200620000Y-66310000D01*
X200620000Y-66310000D02*
X200595000Y-66285000D01*
X200595000Y-66285000D02*
X200595000Y-61280000D01*
X148215000Y-66615000D02*
X148220000Y-66620000D01*
X148215000Y-61310000D02*
X148215000Y-66615000D01*
X141390000Y-61350000D02*
X141460000Y-61280000D01*
X141390000Y-64820000D02*
X141390000Y-61350000D01*
X114950000Y-29130000D02*
X114950000Y-64720000D01*
X114950000Y-64720000D02*
X114880000Y-64790000D01*
%TO.N,Row2*%
X101204600Y-45254600D02*
X101210000Y-45260000D01*
X101204600Y-26736000D02*
X101204600Y-45254600D01*
%TO.N,Row0*%
X117550000Y-31190000D02*
X117550000Y-27090188D01*
X78840000Y-27000000D02*
X79080000Y-27240000D01*
X79080000Y-27240000D02*
X79080000Y-31250000D01*
X117550000Y-27090188D02*
X117570188Y-27070000D01*
%TO.N,Row1*%
X112730000Y-45980000D02*
X112700000Y-46010000D01*
X112660000Y-25044000D02*
X112730000Y-25114000D01*
X112730000Y-25114000D02*
X112730000Y-45980000D01*
%TO.N,Col4*%
X108820000Y-52080000D02*
X108820000Y-67540000D01*
X108820000Y-52080000D02*
X108820000Y-19984000D01*
X108820000Y-19984000D02*
X108840000Y-19964000D01*
%TO.N,RST*%
X104780000Y-33250000D02*
X104780000Y-21120000D01*
X101729932Y-18069932D02*
X101729932Y-13909932D01*
X104780000Y-21120000D02*
X101729932Y-18069932D01*
X101729932Y-13909932D02*
X101340000Y-13520000D01*
X107660000Y-12094000D02*
X107660000Y-13520000D01*
X106920000Y-11354000D02*
X107660000Y-12094000D01*
%TO.N,Col3*%
X63620000Y-24290000D02*
X63620000Y-27910000D01*
X63620000Y-27910000D02*
X63620000Y-38040000D01*
%TO.N,Col2*%
X41370000Y-9680000D02*
X41370000Y-20040000D01*
X41260000Y-9570000D02*
X41370000Y-9680000D01*
%TO.N,Col1*%
X23370000Y-8840000D02*
X23380000Y-8830000D01*
X23370000Y-20040000D02*
X23370000Y-8840000D01*
%TO.N,Col0*%
X5360000Y-7880000D02*
X5370000Y-7890000D01*
X5370000Y-7890000D02*
X5370000Y-20040000D01*
%TO.N,col5*%
X116370000Y-17480000D02*
X116390000Y-17460000D01*
X116370000Y-20040000D02*
X116370000Y-17480000D01*
%TO.N,col6*%
X134370000Y-13670000D02*
X134370000Y-20040000D01*
X134240000Y-13030000D02*
X134240000Y-13540000D01*
X134240000Y-13540000D02*
X134370000Y-13670000D01*
%TO.N,col7*%
X152370000Y-10010000D02*
X152370000Y-20040000D01*
X152380000Y-9700000D02*
X152380000Y-10000000D01*
X152380000Y-10000000D02*
X152370000Y-10010000D01*
%TO.N,GND*%
X109485000Y-15202000D02*
X109706509Y-15202000D01*
X109706509Y-15202000D02*
X111280000Y-16775491D01*
X111280000Y-16775491D02*
X111280000Y-33250000D01*
X109485000Y-15202000D02*
X109485000Y-7845000D01*
X109485000Y-7845000D02*
X109470000Y-7830000D01*
X102180000Y-10394000D02*
X103200000Y-11414000D01*
X102180000Y-7820000D02*
X102180000Y-10394000D01*
%TO.N,Net-(BT1--)*%
X211970000Y-14830000D02*
X211940000Y-14800000D01*
X211970000Y-25290000D02*
X211970000Y-14830000D01*
%TO.N,Row1*%
X187935000Y-25380000D02*
X186920000Y-26395000D01*
X186920000Y-37440000D02*
X189300000Y-39820000D01*
X189300000Y-39820000D02*
X189300000Y-44780000D01*
X186920000Y-26395000D02*
X186920000Y-37440000D01*
%TO.N,Row2*%
X143190000Y-63510000D02*
X143190000Y-54307056D01*
X139730000Y-50290000D02*
X138090000Y-48650000D01*
X143190000Y-54307056D02*
X139730000Y-50847056D01*
X139730000Y-50847056D02*
X139730000Y-50290000D01*
X192030000Y-45950000D02*
X192030000Y-43325000D01*
X192030000Y-43325000D02*
X192025000Y-43320000D01*
X138145000Y-48595000D02*
X138090000Y-48650000D01*
X138145000Y-43340000D02*
X138145000Y-48595000D01*
X183705000Y-61360000D02*
X183705000Y-63505000D01*
X183705000Y-63505000D02*
X183700000Y-63510000D01*
X129500000Y-63440000D02*
X129500000Y-61345000D01*
X129500000Y-61345000D02*
X129465000Y-61310000D01*
%TO.N,Row1*%
X157085000Y-43320000D02*
X157085000Y-45815000D01*
X157085000Y-45815000D02*
X157030000Y-45870000D01*
X120080000Y-43350000D02*
X120080000Y-45850000D01*
X120080000Y-45850000D02*
X120060000Y-45870000D01*
X175180000Y-45850000D02*
X175180000Y-43415000D01*
X175180000Y-43415000D02*
X175145000Y-43380000D01*
%TO.N,Row0*%
X146935000Y-25310000D02*
X146935000Y-27065000D01*
X146935000Y-27065000D02*
X146940000Y-27070000D01*
X152995000Y-25290000D02*
X152995000Y-27065000D01*
X152995000Y-27065000D02*
X153000000Y-27070000D01*
X170930000Y-25335000D02*
X170925000Y-25330000D01*
X128875000Y-25280000D02*
X128875000Y-27055000D01*
X128875000Y-27055000D02*
X128890000Y-27070000D01*
X170930000Y-27060000D02*
X170930000Y-25335000D01*
%TO.N,Row2*%
X47005000Y-61390000D02*
X47005000Y-63765000D01*
X47005000Y-63765000D02*
X46980000Y-63790000D01*
%TO.N,Row3*%
X53380000Y-59970000D02*
X53380000Y-61455000D01*
X53380000Y-61455000D02*
X53365000Y-61470000D01*
X73490000Y-61265000D02*
X73505000Y-61280000D01*
X73490000Y-60000000D02*
X73490000Y-61265000D01*
X90815000Y-61300000D02*
X90815000Y-64935000D01*
X90815000Y-64935000D02*
X90830000Y-64950000D01*
X73500000Y-65010000D02*
X73500000Y-61285000D01*
X73500000Y-61285000D02*
X73505000Y-61280000D01*
%TO.N,Row2*%
X84655000Y-61330000D02*
X84655000Y-63765000D01*
X84655000Y-63765000D02*
X84680000Y-63790000D01*
X30695000Y-61420000D02*
X30695000Y-63765000D01*
X30695000Y-63765000D02*
X30720000Y-63790000D01*
X104030000Y-63820000D02*
X104030000Y-61150000D01*
X104030000Y-61150000D02*
X104020000Y-61140000D01*
%TO.N,Row1*%
X41175000Y-46005000D02*
X41170000Y-46010000D01*
X41175000Y-43360000D02*
X41175000Y-46005000D01*
X59215000Y-43310000D02*
X59215000Y-45995000D01*
X59215000Y-45995000D02*
X59230000Y-46010000D01*
X76135000Y-46005000D02*
X76140000Y-46010000D01*
X76135000Y-43330000D02*
X76135000Y-46005000D01*
X95190000Y-43335000D02*
X95165000Y-43310000D01*
X23275000Y-43280000D02*
X23275000Y-45665000D01*
X23275000Y-45665000D02*
X23270000Y-45670000D01*
X95190000Y-46010000D02*
X95190000Y-43335000D01*
%TO.N,Row0*%
X36945000Y-25340000D02*
X36945000Y-26985000D01*
X36945000Y-26985000D02*
X36970000Y-27010000D01*
X57235000Y-25260000D02*
X57235000Y-26985000D01*
X57235000Y-26985000D02*
X57260000Y-27010000D01*
X72935000Y-25300000D02*
X72935000Y-26975000D01*
X72935000Y-26975000D02*
X72900000Y-27010000D01*
X17675000Y-26665000D02*
X17640000Y-26700000D01*
X17675000Y-25330000D02*
X17675000Y-26665000D01*
X78840000Y-25315000D02*
X78815000Y-25290000D01*
X78840000Y-27000000D02*
X78840000Y-25315000D01*
%TO.N,col8*%
X192620000Y-38040000D02*
X193125000Y-38545000D01*
X193125000Y-46847944D02*
X201120000Y-54842944D01*
X193125000Y-38545000D02*
X193125000Y-46847944D01*
X201120000Y-54842944D02*
X201120000Y-56040000D01*
X188370000Y-20040000D02*
X190020000Y-21690000D01*
X190020000Y-35440000D02*
X192620000Y-38040000D01*
X190020000Y-21690000D02*
X190020000Y-35440000D01*
X170370000Y-20040000D02*
X170370000Y-14120000D01*
X188370000Y-13870000D02*
X188370000Y-20040000D01*
X170370000Y-14120000D02*
X170390000Y-14100000D01*
X188410000Y-13510000D02*
X188410000Y-13830000D01*
X188410000Y-13830000D02*
X188370000Y-13870000D01*
%TO.N,col7*%
X165120000Y-48840000D02*
X165070000Y-48790000D01*
X165120000Y-56040000D02*
X165120000Y-48840000D01*
X174620000Y-38040000D02*
X173760000Y-38900000D01*
X173760000Y-38900000D02*
X173760000Y-48790000D01*
X152370000Y-20040000D02*
X154095000Y-21765000D01*
X154095000Y-21765000D02*
X154095000Y-48785000D01*
X154095000Y-48785000D02*
X154090000Y-48790000D01*
X183200000Y-48860000D02*
X183120000Y-48940000D01*
X183120000Y-48940000D02*
X183120000Y-56040000D01*
%TO.N,col6*%
X138620000Y-24290000D02*
X138620000Y-31520000D01*
X156620000Y-31600000D02*
X156600000Y-31580000D01*
X138620000Y-31520000D02*
X138620000Y-38040000D01*
X156620000Y-38040000D02*
X156620000Y-31600000D01*
X138620000Y-38040000D02*
X140595000Y-40015000D01*
X140595000Y-40015000D02*
X140595000Y-47012056D01*
X147120000Y-53537056D02*
X147120000Y-56040000D01*
X140595000Y-47012056D02*
X147120000Y-53537056D01*
X134370000Y-20040000D02*
X138620000Y-24290000D01*
%TO.N,col5*%
X170340000Y-78350000D02*
X170340000Y-74060000D01*
X170340000Y-74060000D02*
X170320000Y-74040000D01*
X129120000Y-56040000D02*
X127440000Y-57720000D01*
X127440000Y-57720000D02*
X127440000Y-78390000D01*
%TO.N,Col4*%
X89715000Y-67235000D02*
X89750000Y-67270000D01*
X90120000Y-56040000D02*
X89715000Y-56445000D01*
X89715000Y-56445000D02*
X89715000Y-67235000D01*
X152370000Y-67540000D02*
X152320000Y-67590000D01*
X152320000Y-67590000D02*
X152320000Y-74040000D01*
%TO.N,col5*%
X120620000Y-38040000D02*
X122530000Y-39950000D01*
X122530000Y-39950000D02*
X122530000Y-49450000D01*
X122530000Y-49450000D02*
X129120000Y-56040000D01*
X116370000Y-20040000D02*
X116370000Y-22700000D01*
X116370000Y-22700000D02*
X120620000Y-26950000D01*
X120620000Y-26950000D02*
X120620000Y-38040000D01*
%TO.N,Col4*%
X81620000Y-38040000D02*
X90120000Y-46540000D01*
X90120000Y-46540000D02*
X90120000Y-56040000D01*
X77370000Y-20040000D02*
X79915000Y-22585000D01*
X79915000Y-22585000D02*
X79915000Y-36335000D01*
X79915000Y-36335000D02*
X81620000Y-38040000D01*
%TO.N,Col2*%
X54120000Y-56040000D02*
X55340000Y-57260000D01*
X55340000Y-57260000D02*
X55340000Y-65700000D01*
X79820000Y-67690000D02*
X79820000Y-74040000D01*
X79850000Y-67350000D02*
X79850000Y-67660000D01*
X79850000Y-67660000D02*
X79820000Y-67690000D01*
%TO.N,Col3*%
X63620000Y-38040000D02*
X72120000Y-46540000D01*
X72120000Y-46540000D02*
X72120000Y-56040000D01*
%TO.N,Col2*%
X45620000Y-38040000D02*
X54120000Y-46540000D01*
X54120000Y-46540000D02*
X54120000Y-56040000D01*
%TO.N,Col3*%
X59370000Y-20040000D02*
X63620000Y-24290000D01*
%TO.N,Col2*%
X41370000Y-20040000D02*
X45620000Y-24290000D01*
X45620000Y-24290000D02*
X45620000Y-38040000D01*
%TO.N,Col1*%
X23370000Y-20040000D02*
X27620000Y-24290000D01*
X27620000Y-24290000D02*
X27620000Y-38040000D01*
%TO.N,Col0*%
X5370000Y-20040000D02*
X5370000Y-33790000D01*
X5370000Y-33790000D02*
X9620000Y-38040000D01*
%TO.N,Col1*%
X27620000Y-38040000D02*
X27925000Y-38345000D01*
X27925000Y-46647944D02*
X36120000Y-54842944D01*
X27925000Y-38345000D02*
X27925000Y-46647944D01*
X36120000Y-54842944D02*
X36120000Y-56040000D01*
%TO.N,Col0*%
X18120000Y-56040000D02*
X18120000Y-55310000D01*
X18120000Y-55310000D02*
X9620000Y-46810000D01*
X9620000Y-46810000D02*
X9620000Y-38040000D01*
%TO.N,Col1*%
X36020000Y-67110000D02*
X36120000Y-67010000D01*
X56920000Y-74040000D02*
X58130000Y-72830000D01*
X58130000Y-72830000D02*
X58130000Y-67160000D01*
X36120000Y-67010000D02*
X36120000Y-56040000D01*
%TO.N,Col0*%
X38920000Y-74040000D02*
X36120000Y-74040000D01*
X36120000Y-74040000D02*
X18120000Y-56040000D01*
%TO.N,Net-(D4-A)*%
X50520000Y-76240000D02*
X56915000Y-69845000D01*
X56915000Y-69845000D02*
X56915000Y-61470000D01*
%TO.N,Net-(D7-A)*%
X47720000Y-58240000D02*
X47720000Y-58555000D01*
X47720000Y-58555000D02*
X50555000Y-61390000D01*
%TO.N,Net-(D8-A)*%
X77055000Y-61280000D02*
X77055000Y-67705000D01*
X77055000Y-67705000D02*
X68520000Y-76240000D01*
%TO.N,Net-(D12-A)*%
X94365000Y-61300000D02*
X95220000Y-62155000D01*
X95220000Y-62155000D02*
X95220000Y-72440000D01*
X95220000Y-72440000D02*
X91420000Y-76240000D01*
%TO.N,Net-(D15-A)*%
X83720000Y-58240000D02*
X86810000Y-61330000D01*
X86810000Y-61330000D02*
X88205000Y-61330000D01*
%TO.N,Net-(D19-A)*%
X101720000Y-58240000D02*
X104670000Y-58240000D01*
X104670000Y-58240000D02*
X107570000Y-61140000D01*
%TO.N,Net-(D3-A)*%
X29720000Y-58240000D02*
X32900000Y-61420000D01*
X32900000Y-61420000D02*
X34245000Y-61420000D01*
%TO.N,Net-(D2-A)*%
X21220000Y-40240000D02*
X23785000Y-40240000D01*
X23785000Y-40240000D02*
X26825000Y-43280000D01*
%TO.N,Net-(D6-A)*%
X39220000Y-40240000D02*
X41605000Y-40240000D01*
X41605000Y-40240000D02*
X44725000Y-43360000D01*
%TO.N,Net-(D10-A)*%
X57220000Y-40240000D02*
X59695000Y-40240000D01*
X59695000Y-40240000D02*
X62765000Y-43310000D01*
%TO.N,Net-(D14-A)*%
X75220000Y-40240000D02*
X78310000Y-43330000D01*
X78310000Y-43330000D02*
X79685000Y-43330000D01*
%TO.N,Net-(D18-A)*%
X93220000Y-40240000D02*
X95645000Y-40240000D01*
X95645000Y-40240000D02*
X98715000Y-43310000D01*
%TO.N,Net-(D17-A)*%
X88970000Y-22240000D02*
X85920000Y-25290000D01*
X85920000Y-25290000D02*
X82365000Y-25290000D01*
%TO.N,Net-(D13-A)*%
X70970000Y-22240000D02*
X73425000Y-22240000D01*
X73425000Y-22240000D02*
X76485000Y-25300000D01*
%TO.N,Net-(D9-A)*%
X52970000Y-22240000D02*
X57765000Y-22240000D01*
X57765000Y-22240000D02*
X60785000Y-25260000D01*
%TO.N,Net-(D5-A)*%
X34970000Y-22240000D02*
X37395000Y-22240000D01*
X37395000Y-22240000D02*
X40495000Y-25340000D01*
%TO.N,Net-(D1-A)*%
X16970000Y-22240000D02*
X20060000Y-25330000D01*
X20060000Y-25330000D02*
X21225000Y-25330000D01*
%TO.N,Net-(D16-A)*%
X141020000Y-76240000D02*
X145010000Y-72250000D01*
X145010000Y-72250000D02*
X145010000Y-61280000D01*
%TO.N,Net-(D23-A)*%
X140720000Y-58240000D02*
X137650000Y-61310000D01*
X137650000Y-61310000D02*
X133015000Y-61310000D01*
%TO.N,Net-(D20-A)*%
X163920000Y-76240000D02*
X163920000Y-62235000D01*
X163920000Y-62235000D02*
X162925000Y-61240000D01*
%TO.N,Net-(D28-A)*%
X158720000Y-58240000D02*
X155650000Y-61310000D01*
X155650000Y-61310000D02*
X151765000Y-61310000D01*
%TO.N,Net-(D24-A)*%
X181920000Y-76240000D02*
X181920000Y-62115000D01*
X181920000Y-62115000D02*
X181135000Y-61330000D01*
%TO.N,Net-(D36-A)*%
X212720000Y-58240000D02*
X209680000Y-61280000D01*
X209680000Y-61280000D02*
X204145000Y-61280000D01*
%TO.N,Net-(D31-A)*%
X194720000Y-58240000D02*
X191600000Y-61360000D01*
X191600000Y-61360000D02*
X187255000Y-61360000D01*
%TO.N,Net-(D32-A)*%
X176720000Y-58240000D02*
X173620000Y-61340000D01*
X173620000Y-61340000D02*
X169205000Y-61340000D01*
%TO.N,Net-(D22-A)*%
X132220000Y-40240000D02*
X129110000Y-43350000D01*
X129110000Y-43350000D02*
X123630000Y-43350000D01*
%TO.N,Net-(D27-A)*%
X150220000Y-40240000D02*
X147120000Y-43340000D01*
X147120000Y-43340000D02*
X141695000Y-43340000D01*
%TO.N,Net-(D26-A)*%
X168220000Y-40240000D02*
X165140000Y-43320000D01*
X165140000Y-43320000D02*
X160635000Y-43320000D01*
%TO.N,Net-(D30-A)*%
X186220000Y-40240000D02*
X183080000Y-43380000D01*
X183080000Y-43380000D02*
X178695000Y-43380000D01*
%TO.N,Net-(D35-A)*%
X204220000Y-40240000D02*
X201140000Y-43320000D01*
X201140000Y-43320000D02*
X195575000Y-43320000D01*
%TO.N,Net-(D34-A)*%
X199970000Y-22240000D02*
X196830000Y-25380000D01*
X196830000Y-25380000D02*
X191485000Y-25380000D01*
%TO.N,Net-(D33-A)*%
X181970000Y-22240000D02*
X178880000Y-25330000D01*
X178880000Y-25330000D02*
X174475000Y-25330000D01*
%TO.N,Net-(D29-A)*%
X163970000Y-22240000D02*
X160920000Y-25290000D01*
X160920000Y-25290000D02*
X156545000Y-25290000D01*
%TO.N,Net-(D25-A)*%
X145970000Y-22240000D02*
X149040000Y-25310000D01*
X149040000Y-25310000D02*
X150485000Y-25310000D01*
%TO.N,Net-(D21-A)*%
X127970000Y-22240000D02*
X131010000Y-25280000D01*
X131010000Y-25280000D02*
X132425000Y-25280000D01*
%TD*%
M02*
