M48
; DRILL file {KiCad 8.0.7} date 2025-05-18T22:24:01+0900
; FORMAT={-:-/ absolute / metric / decimal}
; #@! TF.CreationDate,2025-05-18T22:24:01+09:00
; #@! TF.GenerationSoftware,Kicad,Pcbnew,8.0.7
; #@! TF.FileFunction,Plated,1,2,PTH
FMAT,2
METRIC
; #@! TA.AperFunction,Plated,PTH,ViaDrill
T1C0.300
; #@! TA.AperFunction,Plated,PTH,ComponentDrill
T2C0.500
; #@! TA.AperFunction,Plated,PTH,ComponentDrill
T3C0.762
; #@! TA.AperFunction,Plated,PTH,ComponentDrill
T4C0.800
; #@! TA.AperFunction,Plated,PTH,ComponentDrill
T5C0.813
; #@! TA.AperFunction,Plated,PTH,ComponentDrill
T6C1.000
; #@! TA.AperFunction,Plated,PTH,ComponentDrill
T7C1.020
; #@! TA.AperFunction,Plated,PTH,ComponentDrill
T8C1.300
%
G90
G05
T1
X5.36Y-7.88
X9.65Y-27.92
X17.64Y-26.7
X23.27Y-45.67
X23.38Y-8.83
X30.72Y-63.79
X36.02Y-67.11
X36.97Y-27.01
X41.17Y-46.01
X41.26Y-9.57
X46.98Y-63.79
X53.38Y-59.97
X54.43Y-30.54
X55.34Y-65.7
X57.26Y-27.01
X58.13Y-67.16
X59.23Y-46.01
X63.62Y-27.91
X65.75Y-63.79
X68.69Y-72.08
X72.9Y-27.01
X73.49Y-60.0
X73.5Y-65.01
X76.14Y-46.01
X78.84Y-27.0
X79.08Y-31.25
X79.85Y-67.35
X84.68Y-63.79
X89.75Y-67.27
X90.83Y-64.95
X95.19Y-46.01
X101.21Y-45.26
X101.34Y-13.52
X102.18Y-7.82
X104.03Y-63.82
X107.66Y-13.52
X108.82Y-67.54
X108.84Y-19.964
X109.47Y-7.83
X109.94Y-29.32
X112.7Y-46.01
X114.88Y-64.79
X114.95Y-29.13
X116.39Y-17.46
X117.55Y-31.19
X117.57Y-27.07
X120.06Y-45.87
X127.44Y-78.39
X128.89Y-27.07
X129.45Y-76.94
X129.5Y-63.44
X134.24Y-13.03
X138.09Y-48.65
X138.145Y-45.12
X138.62Y-31.52
X141.39Y-64.82
X143.19Y-63.51
X146.94Y-27.07
X148.22Y-66.62
X152.37Y-67.54
X152.38Y-9.7
X153.0Y-27.07
X154.09Y-48.79
X156.6Y-31.58
X157.03Y-45.87
X159.37Y-66.62
X165.07Y-48.79
X167.13Y-30.25
X168.45Y-66.62
X170.34Y-78.35
X170.39Y-14.1
X170.93Y-27.06
X173.76Y-48.79
X175.18Y-45.85
X177.58Y-66.62
X183.2Y-48.86
X183.7Y-63.51
X188.41Y-13.51
X189.3Y-44.78
X192.03Y-45.95
X200.62Y-66.65
X211.94Y-14.8
T3
X103.2Y-11.414
X106.92Y-11.354
T5
X97.42Y-9.804
X97.42Y-12.344
X97.42Y-14.884
X97.42Y-17.424
X97.42Y-19.964
X97.42Y-22.504
X97.42Y-25.044
X112.66Y-9.804
X112.66Y-12.344
X112.66Y-14.884
X112.66Y-17.424
X112.66Y-19.964
X112.66Y-22.504
X112.66Y-25.044
T6
X99.325Y-26.736
X101.205Y-26.736
X109.485Y-15.202
X109.485Y-17.107
T7
X9.63Y-25.56
X54.43Y-25.56
X167.17Y-25.29
X211.97Y-25.29
T8
X104.78Y-33.25
X111.28Y-33.25
T2
G00X216.56Y-12.14
M15
G01X216.56Y-12.44
M16
G05
G00X216.56Y-14.64
M15
G01X216.56Y-14.94
M16
G05
G00X216.56Y-17.14
M15
G01X216.56Y-17.44
M16
G05
T4
G00X19.32Y-11.34
M15
G01X19.12Y-11.34
M16
G05
G00X23.57Y-29.34
M15
G01X23.37Y-29.34
M16
G05
G00X32.07Y-47.34
M15
G01X31.87Y-47.34
M16
G05
G00X37.32Y-11.34
M15
G01X37.12Y-11.34
M16
G05
G00X41.57Y-29.34
M15
G01X41.37Y-29.34
M16
G05
G00X50.07Y-47.34
M15
G01X49.87Y-47.34
M16
G05
G00X52.87Y-65.34
M15
G01X52.67Y-65.34
M16
G05
G00X55.32Y-11.34
M15
G01X55.12Y-11.34
M16
G05
G00X59.57Y-29.34
M15
G01X59.37Y-29.34
M16
G05
G00X68.07Y-47.34
M15
G01X67.87Y-47.34
M16
G05
G00X70.87Y-65.34
M15
G01X70.67Y-65.34
M16
G05
G00X73.32Y-11.34
M15
G01X73.12Y-11.34
M16
G05
G00X77.57Y-29.34
M15
G01X77.37Y-29.34
M16
G05
G00X86.07Y-47.34
M15
G01X85.87Y-47.34
M16
G05
G00X91.32Y-11.34
M15
G01X91.12Y-11.34
M16
G05
G00X93.77Y-65.34
M15
G01X93.57Y-65.34
M16
G05
G00X95.57Y-29.34
M15
G01X95.37Y-29.34
M16
G05
G00X104.07Y-47.34
M15
G01X103.87Y-47.34
M16
G05
G00X130.32Y-11.34
M15
G01X130.12Y-11.34
M16
G05
G00X134.57Y-29.34
M15
G01X134.37Y-29.34
M16
G05
G00X143.07Y-47.34
M15
G01X142.87Y-47.34
M16
G05
G00X143.37Y-65.34
M15
G01X143.17Y-65.34
M16
G05
G00X148.32Y-11.34
M15
G01X148.12Y-11.34
M16
G05
G00X152.57Y-29.34
M15
G01X152.37Y-29.34
M16
G05
G00X161.07Y-47.34
M15
G01X160.87Y-47.34
M16
G05
G00X166.27Y-65.34
M15
G01X166.07Y-65.34
M16
G05
G00X166.32Y-11.34
M15
G01X166.12Y-11.34
M16
G05
G00X170.57Y-29.34
M15
G01X170.37Y-29.34
M16
G05
G00X179.07Y-47.34
M15
G01X178.87Y-47.34
M16
G05
G00X184.27Y-65.34
M15
G01X184.07Y-65.34
M16
G05
G00X184.32Y-11.34
M15
G01X184.12Y-11.34
M16
G05
G00X188.57Y-29.34
M15
G01X188.37Y-29.34
M16
G05
G00X197.07Y-47.34
M15
G01X196.87Y-47.34
M16
G05
G00X202.32Y-11.34
M15
G01X202.12Y-11.34
M16
G05
G00X206.57Y-29.34
M15
G01X206.37Y-29.34
M16
G05
G00X215.07Y-47.34
M15
G01X214.87Y-47.34
M16
G05
M30
