%TF.GenerationSoftware,KiCad,Pcbnew,8.0.7*%
%TF.CreationDate,2025-05-18T22:23:59+09:00*%
%TF.ProjectId,cool436,636f6f6c-3433-4362-9e6b-696361645f70,rev?*%
%TF.SameCoordinates,Original*%
%TF.FileFunction,Legend,Top*%
%TF.FilePolarity,Positive*%
%FSLAX46Y46*%
G04 Gerber Fmt 4.6, Leading zero omitted, Abs format (unit mm)*
G04 Created by KiCad (PCBNEW 8.0.7) date 2025-05-18 22:23:59*
%MOMM*%
%LPD*%
G01*
G04 APERTURE LIST*
%ADD10C,0.150000*%
%ADD11C,0.120000*%
%ADD12O,2.200000X1.500000*%
%ADD13C,2.000000*%
G04 APERTURE END LIST*
D10*
X166384285Y-17221009D02*
X166527142Y-17268628D01*
X166527142Y-17268628D02*
X166574761Y-17316247D01*
X166574761Y-17316247D02*
X166622380Y-17411485D01*
X166622380Y-17411485D02*
X166622380Y-17554342D01*
X166622380Y-17554342D02*
X166574761Y-17649580D01*
X166574761Y-17649580D02*
X166527142Y-17697200D01*
X166527142Y-17697200D02*
X166431904Y-17744819D01*
X166431904Y-17744819D02*
X166050952Y-17744819D01*
X166050952Y-17744819D02*
X166050952Y-16744819D01*
X166050952Y-16744819D02*
X166384285Y-16744819D01*
X166384285Y-16744819D02*
X166479523Y-16792438D01*
X166479523Y-16792438D02*
X166527142Y-16840057D01*
X166527142Y-16840057D02*
X166574761Y-16935295D01*
X166574761Y-16935295D02*
X166574761Y-17030533D01*
X166574761Y-17030533D02*
X166527142Y-17125771D01*
X166527142Y-17125771D02*
X166479523Y-17173390D01*
X166479523Y-17173390D02*
X166384285Y-17221009D01*
X166384285Y-17221009D02*
X166050952Y-17221009D01*
X166908095Y-16744819D02*
X167479523Y-16744819D01*
X167193809Y-17744819D02*
X167193809Y-16744819D01*
X168336666Y-17744819D02*
X167765238Y-17744819D01*
X168050952Y-17744819D02*
X168050952Y-16744819D01*
X168050952Y-16744819D02*
X167955714Y-16887676D01*
X167955714Y-16887676D02*
X167860476Y-16982914D01*
X167860476Y-16982914D02*
X167765238Y-17030533D01*
X162979048Y-25363866D02*
X163740953Y-25363866D01*
X163360000Y-25744819D02*
X163360000Y-24982914D01*
X215049048Y-25363866D02*
X215810953Y-25363866D01*
X8844285Y-17491009D02*
X8987142Y-17538628D01*
X8987142Y-17538628D02*
X9034761Y-17586247D01*
X9034761Y-17586247D02*
X9082380Y-17681485D01*
X9082380Y-17681485D02*
X9082380Y-17824342D01*
X9082380Y-17824342D02*
X9034761Y-17919580D01*
X9034761Y-17919580D02*
X8987142Y-17967200D01*
X8987142Y-17967200D02*
X8891904Y-18014819D01*
X8891904Y-18014819D02*
X8510952Y-18014819D01*
X8510952Y-18014819D02*
X8510952Y-17014819D01*
X8510952Y-17014819D02*
X8844285Y-17014819D01*
X8844285Y-17014819D02*
X8939523Y-17062438D01*
X8939523Y-17062438D02*
X8987142Y-17110057D01*
X8987142Y-17110057D02*
X9034761Y-17205295D01*
X9034761Y-17205295D02*
X9034761Y-17300533D01*
X9034761Y-17300533D02*
X8987142Y-17395771D01*
X8987142Y-17395771D02*
X8939523Y-17443390D01*
X8939523Y-17443390D02*
X8844285Y-17491009D01*
X8844285Y-17491009D02*
X8510952Y-17491009D01*
X9368095Y-17014819D02*
X9939523Y-17014819D01*
X9653809Y-18014819D02*
X9653809Y-17014819D01*
X10225238Y-17110057D02*
X10272857Y-17062438D01*
X10272857Y-17062438D02*
X10368095Y-17014819D01*
X10368095Y-17014819D02*
X10606190Y-17014819D01*
X10606190Y-17014819D02*
X10701428Y-17062438D01*
X10701428Y-17062438D02*
X10749047Y-17110057D01*
X10749047Y-17110057D02*
X10796666Y-17205295D01*
X10796666Y-17205295D02*
X10796666Y-17300533D01*
X10796666Y-17300533D02*
X10749047Y-17443390D01*
X10749047Y-17443390D02*
X10177619Y-18014819D01*
X10177619Y-18014819D02*
X10796666Y-18014819D01*
X5439048Y-25633866D02*
X6200953Y-25633866D01*
X5820000Y-26014819D02*
X5820000Y-25252914D01*
X57509048Y-25633866D02*
X58270953Y-25633866D01*
%TO.C,SW45*%
X215610000Y-10290000D02*
X219110000Y-10290000D01*
X215610000Y-19290000D02*
X215610000Y-10290000D01*
X219110000Y-10290000D02*
X219110000Y-19290000D01*
X219110000Y-19290000D02*
X215610000Y-19290000D01*
D11*
%TO.C,BT1*%
X164370000Y-18690000D02*
X164370000Y-31890000D01*
X164370000Y-31890000D02*
X214570000Y-31890000D01*
X165170000Y-19290000D02*
X165170000Y-31290000D01*
X165170000Y-19290000D02*
X168170000Y-19290000D01*
X165170000Y-23290000D02*
X166170000Y-23290000D01*
X165170000Y-31290000D02*
X168170000Y-31290000D01*
X166170000Y-27290000D02*
X165170000Y-27290000D01*
X170170000Y-21290000D02*
X180170000Y-21290000D01*
X170170000Y-29290000D02*
X180170000Y-29290000D01*
X182170000Y-31290000D02*
X196170000Y-31290000D01*
X196170000Y-19290000D02*
X182170000Y-19290000D01*
X207170000Y-24290000D02*
X207170000Y-26290000D01*
X208170000Y-21290000D02*
X198170000Y-21290000D01*
X208170000Y-23290000D02*
X208170000Y-27290000D01*
X208170000Y-29290000D02*
X198170000Y-29290000D01*
X209170000Y-28290000D02*
X209170000Y-22290000D01*
X210170000Y-21290000D02*
X210170000Y-29290000D01*
X213170000Y-19290000D02*
X210170000Y-19290000D01*
X213170000Y-19290000D02*
X213170000Y-31290000D01*
X213170000Y-31290000D02*
X210170000Y-31290000D01*
X214570000Y-18690000D02*
X164370000Y-18690000D01*
X214570000Y-31890000D02*
X214570000Y-18690000D01*
X168170000Y-31290000D02*
G75*
G02*
X170170000Y-29290000I2000000J0D01*
G01*
X170170000Y-21290000D02*
G75*
G02*
X168170000Y-19290000I0J2000000D01*
G01*
X180170000Y-29290000D02*
G75*
G02*
X182170000Y-31290000I0J-2000000D01*
G01*
X182170000Y-19290000D02*
G75*
G02*
X180170000Y-21290000I-2000000J0D01*
G01*
X196170000Y-31290000D02*
G75*
G02*
X198170000Y-29290000I2000000J0D01*
G01*
X198170000Y-21290000D02*
G75*
G02*
X196170000Y-19290000I0J2000000D01*
G01*
X208170000Y-29290000D02*
G75*
G02*
X210170000Y-31290000I0J-2000000D01*
G01*
X210170000Y-19290000D02*
G75*
G02*
X208170000Y-21290000I-2000000J0D01*
G01*
%TO.C,BT2*%
X6830000Y-18960000D02*
X6830000Y-32160000D01*
X6830000Y-32160000D02*
X57030000Y-32160000D01*
X7630000Y-19560000D02*
X7630000Y-31560000D01*
X7630000Y-19560000D02*
X10630000Y-19560000D01*
X7630000Y-23560000D02*
X8630000Y-23560000D01*
X7630000Y-31560000D02*
X10630000Y-31560000D01*
X8630000Y-27560000D02*
X7630000Y-27560000D01*
X12630000Y-21560000D02*
X22630000Y-21560000D01*
X12630000Y-29560000D02*
X22630000Y-29560000D01*
X24630000Y-31560000D02*
X38630000Y-31560000D01*
X38630000Y-19560000D02*
X24630000Y-19560000D01*
X49630000Y-24560000D02*
X49630000Y-26560000D01*
X50630000Y-21560000D02*
X40630000Y-21560000D01*
X50630000Y-23560000D02*
X50630000Y-27560000D01*
X50630000Y-29560000D02*
X40630000Y-29560000D01*
X51630000Y-28560000D02*
X51630000Y-22560000D01*
X52630000Y-21560000D02*
X52630000Y-29560000D01*
X55630000Y-19560000D02*
X52630000Y-19560000D01*
X55630000Y-19560000D02*
X55630000Y-31560000D01*
X55630000Y-31560000D02*
X52630000Y-31560000D01*
X57030000Y-18960000D02*
X6830000Y-18960000D01*
X57030000Y-32160000D02*
X57030000Y-18960000D01*
X10630000Y-31560000D02*
G75*
G02*
X12630000Y-29560000I2000000J0D01*
G01*
X12630000Y-21560000D02*
G75*
G02*
X10630000Y-19560000I0J2000000D01*
G01*
X22630000Y-29560000D02*
G75*
G02*
X24630000Y-31560000I0J-2000000D01*
G01*
X24630000Y-19560000D02*
G75*
G02*
X22630000Y-21560000I-2000000J0D01*
G01*
X38630000Y-31560000D02*
G75*
G02*
X40630000Y-29560000I2000000J0D01*
G01*
X40630000Y-21560000D02*
G75*
G02*
X38630000Y-19560000I0J2000000D01*
G01*
X50630000Y-29560000D02*
G75*
G02*
X52630000Y-31560000I0J-2000000D01*
G01*
X52630000Y-19560000D02*
G75*
G02*
X50630000Y-21560000I-2000000J0D01*
G01*
%TD*%
D12*
%TO.C,SW6*%
X41470000Y-29340000D03*
%TD*%
%TO.C,SW22*%
X134470000Y-29340000D03*
%TD*%
%TO.C,SW14*%
X77470000Y-29340000D03*
%TD*%
%TO.C,SW13*%
X73220000Y-11340000D03*
%TD*%
%TO.C,SW24*%
X184170000Y-65340000D03*
%TD*%
%TO.C,SW27*%
X152470000Y-29340000D03*
%TD*%
%TO.C,SW23*%
X142970000Y-47340000D03*
%TD*%
%TO.C,SW3*%
X31970000Y-47340000D03*
%TD*%
%TO.C,SW34*%
X202220000Y-11340000D03*
%TD*%
%TO.C,SW26*%
X170470000Y-29340000D03*
%TD*%
%TO.C,SW4*%
X52770000Y-65340000D03*
%TD*%
%TO.C,SW20*%
X166170000Y-65340000D03*
%TD*%
%TO.C,SW12*%
X93670000Y-65340000D03*
%TD*%
%TO.C,SW33*%
X184220000Y-11340000D03*
%TD*%
%TO.C,SW1*%
X19220000Y-11340000D03*
%TD*%
%TO.C,SW29*%
X166220000Y-11340000D03*
%TD*%
%TO.C,SW31*%
X196970000Y-47340000D03*
%TD*%
%TO.C,SW35*%
X206470000Y-29340000D03*
%TD*%
%TO.C,SW9*%
X55220000Y-11340000D03*
%TD*%
%TO.C,SW19*%
X103970000Y-47340000D03*
%TD*%
%TO.C,SW15*%
X85970000Y-47340000D03*
%TD*%
%TO.C,SW2*%
X23470000Y-29340000D03*
%TD*%
%TO.C,SW8*%
X70770000Y-65340000D03*
%TD*%
%TO.C,SW16*%
X143270000Y-65340000D03*
%TD*%
%TO.C,SW17*%
X91220000Y-11340000D03*
%TD*%
%TO.C,SW36*%
X214970000Y-47340000D03*
%TD*%
%TO.C,SW32*%
X178970000Y-47340000D03*
%TD*%
%TO.C,SW7*%
X49970000Y-47340000D03*
%TD*%
%TO.C,SW21*%
X130220000Y-11340000D03*
%TD*%
%TO.C,SW5*%
X37220000Y-11340000D03*
%TD*%
%TO.C,SW11*%
X67970000Y-47340000D03*
%TD*%
D13*
%TO.C,SW46*%
X104780000Y-33250000D03*
X111280000Y-33250000D03*
%TD*%
D12*
%TO.C,SW30*%
X188470000Y-29340000D03*
%TD*%
%TO.C,SW18*%
X95470000Y-29340000D03*
%TD*%
%TO.C,SW28*%
X160970000Y-47340000D03*
%TD*%
%TO.C,SW10*%
X59470000Y-29340000D03*
%TD*%
%TO.C,SW25*%
X148220000Y-11340000D03*
%TD*%
M02*
