%TF.GenerationSoftware,KiCad,Pcbnew,8.0.7*%
%TF.CreationDate,2025-05-18T22:23:59+09:00*%
%TF.ProjectId,cool436,636f6f6c-3433-4362-9e6b-696361645f70,rev?*%
%TF.SameCoordinates,Original*%
%TF.FileFunction,Copper,L1,Top*%
%TF.FilePolarity,Positive*%
%FSLAX46Y46*%
G04 Gerber Fmt 4.6, Leading zero omitted, Abs format (unit mm)*
G04 Created by KiCad (PCBNEW 8.0.7) date 2025-05-18 22:23:59*
%MOMM*%
%LPD*%
G01*
G04 APERTURE LIST*
%TA.AperFunction,ComponentPad*%
%ADD10O,2.200000X1.500000*%
%TD*%
%TA.AperFunction,ComponentPad*%
%ADD11O,1.000000X1.300000*%
%TD*%
%TA.AperFunction,ComponentPad*%
%ADD12R,2.000000X2.000000*%
%TD*%
%TA.AperFunction,ComponentPad*%
%ADD13C,2.000000*%
%TD*%
%TA.AperFunction,ComponentPad*%
%ADD14O,2.750000X1.800000*%
%TD*%
%TA.AperFunction,ComponentPad*%
%ADD15C,1.500000*%
%TD*%
%TA.AperFunction,ComponentPad*%
%ADD16C,1.524000*%
%TD*%
%TA.AperFunction,ViaPad*%
%ADD17C,0.600000*%
%TD*%
%TA.AperFunction,Conductor*%
%ADD18C,0.500000*%
%TD*%
G04 APERTURE END LIST*
D10*
%TO.P,SW6,*%
%TO.N,*%
X41470000Y-29340000D03*
%TD*%
%TO.P,SW22,*%
%TO.N,*%
X134470000Y-29340000D03*
%TD*%
%TO.P,SW14,*%
%TO.N,*%
X77470000Y-29340000D03*
%TD*%
%TO.P,SW13,*%
%TO.N,*%
X73220000Y-11340000D03*
%TD*%
%TO.P,SW24,*%
%TO.N,*%
X184170000Y-65340000D03*
%TD*%
%TO.P,SW27,*%
%TO.N,*%
X152470000Y-29340000D03*
%TD*%
%TO.P,SW23,*%
%TO.N,*%
X142970000Y-47340000D03*
%TD*%
%TO.P,SW3,*%
%TO.N,*%
X31970000Y-47340000D03*
%TD*%
%TO.P,SW34,*%
%TO.N,*%
X202220000Y-11340000D03*
%TD*%
%TO.P,SW26,*%
%TO.N,*%
X170470000Y-29340000D03*
%TD*%
%TO.P,SW4,*%
%TO.N,*%
X52770000Y-65340000D03*
%TD*%
D11*
%TO.P,SW45,1,A*%
%TO.N,unconnected-(SW45-A-Pad1)*%
X216560000Y-12290000D03*
%TO.P,SW45,2,B*%
%TO.N,Net-(BT1--)*%
X216560000Y-14790000D03*
%TO.P,SW45,3,C*%
%TO.N,GND*%
X216560000Y-17290000D03*
%TD*%
D10*
%TO.P,SW20,*%
%TO.N,*%
X166170000Y-65340000D03*
%TD*%
%TO.P,SW12,*%
%TO.N,*%
X93670000Y-65340000D03*
%TD*%
%TO.P,SW33,*%
%TO.N,*%
X184220000Y-11340000D03*
%TD*%
%TO.P,SW1,*%
%TO.N,*%
X19220000Y-11340000D03*
%TD*%
%TO.P,SW29,*%
%TO.N,*%
X166220000Y-11340000D03*
%TD*%
%TO.P,SW31,*%
%TO.N,*%
X196970000Y-47340000D03*
%TD*%
D12*
%TO.P,BT1,1,+*%
%TO.N,Net-(BT1-+)*%
X167170000Y-25290000D03*
D13*
%TO.P,BT1,2,-*%
%TO.N,Net-(BT1--)*%
X211970000Y-25290000D03*
%TD*%
D10*
%TO.P,SW35,*%
%TO.N,*%
X206470000Y-29340000D03*
%TD*%
%TO.P,SW9,*%
%TO.N,*%
X55220000Y-11340000D03*
%TD*%
%TO.P,SW19,*%
%TO.N,*%
X103970000Y-47340000D03*
%TD*%
%TO.P,SW15,*%
%TO.N,*%
X85970000Y-47340000D03*
%TD*%
D12*
%TO.P,BT2,1,+*%
%TO.N,Bat*%
X9630000Y-25560000D03*
D13*
%TO.P,BT2,2,-*%
%TO.N,Net-(BT1-+)*%
X54430000Y-25560000D03*
%TD*%
D10*
%TO.P,SW2,*%
%TO.N,*%
X23470000Y-29340000D03*
%TD*%
%TO.P,SW8,*%
%TO.N,*%
X70770000Y-65340000D03*
%TD*%
%TO.P,SW16,*%
%TO.N,*%
X143270000Y-65340000D03*
%TD*%
%TO.P,SW17,*%
%TO.N,*%
X91220000Y-11340000D03*
%TD*%
%TO.P,SW36,*%
%TO.N,*%
X214970000Y-47340000D03*
%TD*%
%TO.P,SW32,*%
%TO.N,*%
X178970000Y-47340000D03*
%TD*%
%TO.P,SW7,*%
%TO.N,*%
X49970000Y-47340000D03*
%TD*%
%TO.P,SW21,*%
%TO.N,*%
X130220000Y-11340000D03*
%TD*%
%TO.P,SW5,*%
%TO.N,*%
X37220000Y-11340000D03*
%TD*%
%TO.P,SW11,*%
%TO.N,*%
X67970000Y-47340000D03*
%TD*%
D13*
%TO.P,SW46,1,1*%
%TO.N,RST*%
X104780000Y-33250000D03*
%TO.P,SW46,2,2*%
%TO.N,GND*%
X111280000Y-33250000D03*
%TD*%
D10*
%TO.P,SW30,*%
%TO.N,*%
X188470000Y-29340000D03*
%TD*%
%TO.P,SW18,*%
%TO.N,*%
X95470000Y-29340000D03*
%TD*%
%TO.P,SW28,*%
%TO.N,*%
X160970000Y-47340000D03*
%TD*%
%TO.P,SW10,*%
%TO.N,*%
X59470000Y-29340000D03*
%TD*%
%TO.P,SW25,*%
%TO.N,*%
X148220000Y-11340000D03*
%TD*%
D14*
%TO.P,U1,1,P0.02_A0_D0*%
%TO.N,col8*%
X113160000Y-9804000D03*
%TO.P,U1,2,P0.03_A1_D1*%
%TO.N,col7*%
X113160000Y-12344000D03*
%TO.P,U1,3,P0.28_A2_D2*%
%TO.N,col6*%
X113160000Y-14884000D03*
%TO.P,U1,4,P0.29_A3_D3*%
%TO.N,col5*%
X113160000Y-17424000D03*
%TO.P,U1,5,P0.04_A4_D4_SDA*%
%TO.N,Col4*%
X113160000Y-19964000D03*
%TO.P,U1,6,P0.05_A5_D5_SCL*%
%TO.N,Row0*%
X113160000Y-22504000D03*
%TO.P,U1,7,P1.11_D6_TX*%
%TO.N,Row1*%
X113160000Y-25044000D03*
%TO.P,U1,8,P1.12_D7_RX*%
%TO.N,Col3*%
X96920000Y-25044000D03*
%TO.P,U1,9,P1.13_D8_SCK*%
%TO.N,Col2*%
X96920000Y-22504000D03*
%TO.P,U1,10,P1.14_D9_MISO*%
%TO.N,Col1*%
X96920000Y-19964000D03*
%TO.P,U1,11,P1.15_D10_MOSI*%
%TO.N,Col0*%
X96920000Y-17424000D03*
%TO.P,U1,12,3V3*%
%TO.N,unconnected-(U1-3V3-Pad12)*%
X96920000Y-14884000D03*
%TO.P,U1,13,GND*%
%TO.N,GND*%
X96920000Y-12344000D03*
%TO.P,U1,14,5V*%
%TO.N,VCC*%
X96920000Y-9804000D03*
D15*
%TO.P,U1,15,NFC1_0.09*%
%TO.N,Row2*%
X101204600Y-26736000D03*
%TO.P,U1,16,NFC2_0.10*%
%TO.N,Row3*%
X99325000Y-26736000D03*
%TO.P,U1,20,BATT+*%
%TO.N,Bat*%
X109485000Y-17107000D03*
%TO.P,U1,21,BATT-*%
%TO.N,GND*%
X109485000Y-15202000D03*
D16*
%TO.P,U1,22,RST*%
%TO.N,RST*%
X106920000Y-11354000D03*
%TO.P,U1,23,GND*%
%TO.N,GND*%
X103200000Y-11414000D03*
%TD*%
D17*
%TO.N,Net-(BT1-+)*%
X54430000Y-30540000D03*
X167130000Y-30250000D03*
%TO.N,Bat*%
X109940000Y-29320000D03*
X9650000Y-27920000D03*
%TO.N,Row2*%
X65750000Y-63790000D03*
%TO.N,Col3*%
X68690000Y-72080000D03*
X129450000Y-76940000D03*
%TO.N,Row3*%
X159370000Y-66620000D03*
X168450000Y-66620000D03*
X177580000Y-66620000D03*
X200620000Y-66650000D03*
X148220000Y-66620000D03*
X141390000Y-64820000D03*
X114880000Y-64790000D03*
X114950000Y-29130000D03*
%TO.N,Row2*%
X101210000Y-45260000D03*
X138145000Y-45120000D03*
%TO.N,Row0*%
X117550000Y-31190000D03*
X117570188Y-27070000D03*
X79080000Y-31250000D03*
%TO.N,Row1*%
X112700000Y-46010000D03*
%TO.N,Col4*%
X108840000Y-19964000D03*
%TO.N,RST*%
X101340000Y-13520000D03*
X107660000Y-13520000D03*
%TO.N,Col4*%
X108820000Y-67540000D03*
%TO.N,Col3*%
X63620000Y-27910000D03*
%TO.N,Col2*%
X41260000Y-9570000D03*
%TO.N,Col1*%
X23380000Y-8830000D03*
%TO.N,Col0*%
X5360000Y-7880000D03*
%TO.N,col5*%
X116390000Y-17460000D03*
%TO.N,col6*%
X134240000Y-13030000D03*
%TO.N,col7*%
X152380000Y-9700000D03*
%TO.N,GND*%
X109470000Y-7830000D03*
X102180000Y-7820000D03*
%TO.N,Net-(BT1--)*%
X211940000Y-14800000D03*
%TO.N,Row1*%
X189300000Y-44780000D03*
%TO.N,Row2*%
X143190000Y-63510000D03*
X192030000Y-45950000D03*
X138090000Y-48650000D03*
X129500000Y-63440000D03*
X183700000Y-63510000D03*
%TO.N,Row1*%
X157030000Y-45870000D03*
X175180000Y-45850000D03*
X120060000Y-45870000D03*
%TO.N,Row0*%
X146940000Y-27070000D03*
X153000000Y-27070000D03*
X170930000Y-27060000D03*
X128890000Y-27070000D03*
%TO.N,Row2*%
X46980000Y-63790000D03*
%TO.N,Row3*%
X53380000Y-59970000D03*
X73490000Y-60000000D03*
X73500000Y-65010000D03*
X90830000Y-64950000D03*
%TO.N,Row2*%
X84680000Y-63790000D03*
X104030000Y-63820000D03*
X30720000Y-63790000D03*
%TO.N,Row1*%
X41170000Y-46010000D03*
X59230000Y-46010000D03*
X76140000Y-46010000D03*
X95190000Y-46010000D03*
X23270000Y-45670000D03*
%TO.N,Row0*%
X36970000Y-27010000D03*
X57260000Y-27010000D03*
X72900000Y-27010000D03*
X78840000Y-27000000D03*
X17640000Y-26700000D03*
%TO.N,col8*%
X188410000Y-13510000D03*
X170390000Y-14100000D03*
%TO.N,col7*%
X165070000Y-48790000D03*
X173760000Y-48790000D03*
X183200000Y-48860000D03*
X154090000Y-48790000D03*
%TO.N,col6*%
X156600000Y-31580000D03*
X138620000Y-31520000D03*
%TO.N,col5*%
X170340000Y-78350000D03*
X127440000Y-78390000D03*
%TO.N,Col4*%
X152370000Y-67540000D03*
X89750000Y-67270000D03*
%TO.N,Col2*%
X79850000Y-67350000D03*
X55340000Y-65700000D03*
%TO.N,Col1*%
X36020000Y-67110000D03*
X58130000Y-67160000D03*
%TD*%
D18*
%TO.N,Net-(BT1-+)*%
X75550000Y-32110000D02*
X73980000Y-30540000D01*
X73980000Y-30540000D02*
X54430000Y-30540000D01*
X76100000Y-32110000D02*
X75550000Y-32110000D01*
X86250000Y-32110000D02*
X86770000Y-31590000D01*
X94190050Y-31950000D02*
X94800000Y-31950000D01*
X94800000Y-31950000D02*
X97550000Y-34700000D01*
X86770000Y-31590000D02*
X93830050Y-31590000D01*
X93830050Y-31590000D02*
X94190050Y-31950000D01*
X76100000Y-32110000D02*
X86250000Y-32110000D01*
X97550000Y-34700000D02*
X116790000Y-34700000D01*
X116790000Y-34700000D02*
X120950000Y-30540000D01*
X120950000Y-30540000D02*
X166840000Y-30540000D01*
X166840000Y-30540000D02*
X167130000Y-30250000D01*
%TO.N,Bat*%
X92100000Y-29470000D02*
X92100000Y-29500000D01*
X92100000Y-29500000D02*
X79769339Y-29500000D01*
X79769339Y-29500000D02*
X78589670Y-30679670D01*
X74140000Y-29660000D02*
X62920000Y-29660000D01*
X96850000Y-27350000D02*
X94220000Y-27350000D01*
X109940000Y-29320000D02*
X98820000Y-29320000D01*
X78589670Y-30679670D02*
X75159670Y-30679670D01*
X75159670Y-30679670D02*
X74140000Y-29660000D01*
X94220000Y-27350000D02*
X92100000Y-29470000D01*
X98820000Y-29320000D02*
X96850000Y-27350000D01*
X62920000Y-29660000D02*
X61180000Y-27920000D01*
X61180000Y-27920000D02*
X9650000Y-27920000D01*
%TO.N,Row0*%
X79080000Y-31250000D02*
X85040000Y-31250000D01*
X85040000Y-31250000D02*
X86090000Y-30200000D01*
X86090000Y-30200000D02*
X93430000Y-30200000D01*
X93430000Y-30200000D02*
X94480000Y-31250000D01*
X94480000Y-31250000D02*
X117490000Y-31250000D01*
X117490000Y-31250000D02*
X117550000Y-31190000D01*
%TO.N,Row3*%
X99325000Y-26736000D02*
X99325000Y-26975006D01*
X100285994Y-27936000D02*
X113756000Y-27936000D01*
X99325000Y-26975006D02*
X100285994Y-27936000D01*
X113756000Y-27936000D02*
X114950000Y-29130000D01*
%TO.N,Col3*%
X85400000Y-27910000D02*
X63620000Y-27910000D01*
X97420000Y-25044000D02*
X97022000Y-25442000D01*
X97022000Y-25442000D02*
X87868000Y-25442000D01*
X87868000Y-25442000D02*
X85400000Y-27910000D01*
%TO.N,Row2*%
X84680000Y-63790000D02*
X65750000Y-63790000D01*
X65750000Y-63790000D02*
X46980000Y-63790000D01*
%TO.N,Col3*%
X95930000Y-76940000D02*
X94880000Y-77990000D01*
X74600000Y-77990000D02*
X68690000Y-72080000D01*
X129450000Y-76940000D02*
X95930000Y-76940000D01*
X94880000Y-77990000D02*
X74600000Y-77990000D01*
%TO.N,Row3*%
X148220000Y-66620000D02*
X159370000Y-66620000D01*
X159370000Y-66620000D02*
X168450000Y-66620000D01*
X168450000Y-66620000D02*
X177580000Y-66620000D01*
X177580000Y-66620000D02*
X200590000Y-66620000D01*
X200590000Y-66620000D02*
X200620000Y-66650000D01*
X142502944Y-66620000D02*
X141390000Y-65507056D01*
X148220000Y-66620000D02*
X142502944Y-66620000D01*
X141390000Y-65507056D02*
X141390000Y-64820000D01*
X141360000Y-64790000D02*
X141390000Y-64820000D01*
X114880000Y-64790000D02*
X141360000Y-64790000D01*
X114880000Y-64790000D02*
X96267056Y-64790000D01*
X94517056Y-66540000D02*
X92420000Y-66540000D01*
X96267056Y-64790000D02*
X94517056Y-66540000D01*
X92420000Y-66540000D02*
X90830000Y-64950000D01*
%TO.N,Row2*%
X101350000Y-45120000D02*
X138145000Y-45120000D01*
X101210000Y-45260000D02*
X101350000Y-45120000D01*
%TO.N,Row1*%
X112700000Y-46010000D02*
X119920000Y-46010000D01*
X95190000Y-46010000D02*
X112700000Y-46010000D01*
%TO.N,Row0*%
X128890000Y-27070000D02*
X117570188Y-27070000D01*
X117570188Y-27070000D02*
X113004188Y-22504000D01*
X113004188Y-22504000D02*
X112660000Y-22504000D01*
%TO.N,Row1*%
X119920000Y-46010000D02*
X120060000Y-45870000D01*
%TO.N,Row2*%
X104030000Y-63820000D02*
X129120000Y-63820000D01*
X129120000Y-63820000D02*
X129500000Y-63440000D01*
%TO.N,Col4*%
X112660000Y-19964000D02*
X108840000Y-19964000D01*
%TO.N,RST*%
X107660000Y-13520000D02*
X101340000Y-13520000D01*
%TO.N,Col4*%
X108820000Y-67540000D02*
X152370000Y-67540000D01*
X90020000Y-67540000D02*
X108820000Y-67540000D01*
%TO.N,Col2*%
X41260000Y-9570000D02*
X84800000Y-9570000D01*
X84800000Y-9570000D02*
X88420000Y-13190000D01*
X88420000Y-13190000D02*
X88420000Y-15287056D01*
X88420000Y-15287056D02*
X95636944Y-22504000D01*
X95636944Y-22504000D02*
X97420000Y-22504000D01*
%TO.N,Col1*%
X23670000Y-8540000D02*
X85260000Y-8540000D01*
X23380000Y-8830000D02*
X23670000Y-8540000D01*
X85260000Y-8540000D02*
X96684000Y-19964000D01*
X96684000Y-19964000D02*
X97420000Y-19964000D01*
%TO.N,Col0*%
X85672944Y-7840000D02*
X5400000Y-7840000D01*
X97420000Y-17424000D02*
X95256944Y-17424000D01*
X95256944Y-17424000D02*
X85672944Y-7840000D01*
X5400000Y-7840000D02*
X5360000Y-7880000D01*
%TO.N,col5*%
X116390000Y-17460000D02*
X112696000Y-17460000D01*
X112696000Y-17460000D02*
X112660000Y-17424000D01*
%TO.N,col6*%
X113004188Y-14884000D02*
X114858188Y-13030000D01*
X114858188Y-13030000D02*
X134240000Y-13030000D01*
X112660000Y-14884000D02*
X113004188Y-14884000D01*
%TO.N,col7*%
X151910000Y-9230000D02*
X152380000Y-9700000D01*
X139940000Y-9230000D02*
X151910000Y-9230000D01*
X113004188Y-12344000D02*
X116118188Y-9230000D01*
X112660000Y-12344000D02*
X113004188Y-12344000D01*
X116118188Y-9230000D02*
X139940000Y-9230000D01*
%TO.N,col8*%
X112660000Y-9804000D02*
X113934000Y-8530000D01*
X113934000Y-8530000D02*
X158720000Y-8530000D01*
X158720000Y-8530000D02*
X163290000Y-13100000D01*
X163290000Y-13100000D02*
X169390000Y-13100000D01*
X169390000Y-13100000D02*
X170390000Y-14100000D01*
%TO.N,GND*%
X109470000Y-7830000D02*
X102190000Y-7830000D01*
X130450000Y-7830000D02*
X109470000Y-7830000D01*
X97420000Y-12344000D02*
X98350000Y-11414000D01*
X98350000Y-11414000D02*
X103200000Y-11414000D01*
X102190000Y-7830000D02*
X102180000Y-7820000D01*
X216560000Y-17290000D02*
X213369339Y-17290000D01*
X213369339Y-17290000D02*
X203909339Y-7830000D01*
X203909339Y-7830000D02*
X130450000Y-7830000D01*
%TO.N,Net-(BT1--)*%
X211940000Y-14800000D02*
X216550000Y-14800000D01*
X216550000Y-14800000D02*
X216560000Y-14790000D01*
%TO.N,Row1*%
X176250000Y-44780000D02*
X175180000Y-45850000D01*
X189300000Y-44780000D02*
X176250000Y-44780000D01*
%TO.N,Row2*%
X143190000Y-63510000D02*
X129570000Y-63510000D01*
X174869339Y-46600000D02*
X175490661Y-46600000D01*
X175490661Y-46600000D02*
X176140661Y-45950000D01*
X158080000Y-47360000D02*
X159300000Y-46140000D01*
X174409339Y-46140000D02*
X174869339Y-46600000D01*
X144997056Y-47360000D02*
X157740000Y-47360000D01*
X159300000Y-46140000D02*
X174409339Y-46140000D01*
X176140661Y-45950000D02*
X192030000Y-45950000D01*
X157740000Y-47360000D02*
X158080000Y-47360000D01*
%TO.N,Row1*%
X157030000Y-45870000D02*
X157150000Y-45870000D01*
X158570000Y-44450000D02*
X173780000Y-44450000D01*
X157150000Y-45870000D02*
X158570000Y-44450000D01*
X173780000Y-44450000D02*
X175180000Y-45850000D01*
%TO.N,Row2*%
X143707056Y-48650000D02*
X144997056Y-47360000D01*
X138090000Y-48650000D02*
X143707056Y-48650000D01*
X129570000Y-63510000D02*
X129500000Y-63440000D01*
X183700000Y-63510000D02*
X143190000Y-63510000D01*
%TO.N,Row1*%
X120060000Y-45870000D02*
X157030000Y-45870000D01*
X175160000Y-45870000D02*
X175180000Y-45850000D01*
%TO.N,Row0*%
X128890000Y-27070000D02*
X146940000Y-27070000D01*
X146940000Y-27070000D02*
X153000000Y-27070000D01*
X153000000Y-27070000D02*
X170920000Y-27070000D01*
X170920000Y-27070000D02*
X170930000Y-27060000D01*
%TO.N,Row2*%
X30720000Y-63790000D02*
X46980000Y-63790000D01*
%TO.N,Row3*%
X53400000Y-59990000D02*
X53380000Y-59970000D01*
X53780000Y-59990000D02*
X53400000Y-59990000D01*
X73480000Y-59990000D02*
X73490000Y-60000000D01*
X53780000Y-59990000D02*
X73480000Y-59990000D01*
X73560000Y-64950000D02*
X73500000Y-65010000D01*
X90830000Y-64950000D02*
X73560000Y-64950000D01*
%TO.N,Row2*%
X84680000Y-63790000D02*
X104000000Y-63790000D01*
X104000000Y-63790000D02*
X104030000Y-63820000D01*
%TO.N,Row1*%
X23610000Y-46010000D02*
X41170000Y-46010000D01*
X41170000Y-46010000D02*
X59230000Y-46010000D01*
X59230000Y-46010000D02*
X76140000Y-46010000D01*
X76140000Y-46010000D02*
X95190000Y-46010000D01*
X23270000Y-45670000D02*
X23610000Y-46010000D01*
%TO.N,Row0*%
X17950000Y-27010000D02*
X36970000Y-27010000D01*
X36970000Y-27010000D02*
X57260000Y-27010000D01*
X57260000Y-27010000D02*
X72900000Y-27010000D01*
X72900000Y-27010000D02*
X78830000Y-27010000D01*
X78830000Y-27010000D02*
X78840000Y-27000000D01*
X17640000Y-26700000D02*
X17950000Y-27010000D01*
%TO.N,col8*%
X188330000Y-13590000D02*
X188410000Y-13510000D01*
X170390000Y-14100000D02*
X170900000Y-13590000D01*
X170900000Y-13590000D02*
X188330000Y-13590000D01*
%TO.N,col7*%
X165070000Y-48790000D02*
X173760000Y-48790000D01*
X154090000Y-48790000D02*
X165070000Y-48790000D01*
X173760000Y-48790000D02*
X183130000Y-48790000D01*
X183130000Y-48790000D02*
X183200000Y-48860000D01*
%TO.N,col6*%
X156600000Y-31580000D02*
X138680000Y-31580000D01*
X138680000Y-31580000D02*
X138620000Y-31520000D01*
%TO.N,col5*%
X127440000Y-78390000D02*
X170300000Y-78390000D01*
X170300000Y-78390000D02*
X170340000Y-78350000D01*
%TO.N,Col4*%
X89750000Y-67270000D02*
X90020000Y-67540000D01*
%TO.N,Col2*%
X60110000Y-67350000D02*
X79850000Y-67350000D01*
X55340000Y-65700000D02*
X58460000Y-65700000D01*
X58460000Y-65700000D02*
X60110000Y-67350000D01*
%TO.N,Col1*%
X36070000Y-67160000D02*
X36020000Y-67110000D01*
X58130000Y-67160000D02*
X36070000Y-67160000D01*
%TD*%
M02*
