%TF.GenerationSoftware,KiCad,Pcbnew,8.0.7*%
%TF.CreationDate,2025-05-18T22:23:59+09:00*%
%TF.ProjectId,cool436,636f6f6c-3433-4362-9e6b-696361645f70,rev?*%
%TF.SameCoordinates,Original*%
%TF.FileFunction,Profile,NP*%
%FSLAX46Y46*%
G04 Gerber Fmt 4.6, Leading zero omitted, Abs format (unit mm)*
G04 Created by KiCad (PCBNEW 8.0.7) date 2025-05-18 22:23:59*
%MOMM*%
%LPD*%
G01*
G04 APERTURE LIST*
%TA.AperFunction,Profile*%
%ADD10C,0.100000*%
%TD*%
%TA.AperFunction,Profile*%
%ADD11C,0.120000*%
%TD*%
G04 APERTURE END LIST*
D10*
X4130000Y-6830000D02*
X219170000Y-6830000D01*
X219170000Y-80110000D01*
X4130000Y-80110000D01*
X4130000Y-6830000D01*
D11*
%TO.C,U1*%
X99054753Y-26315953D02*
X99054753Y-19715000D01*
X99435753Y-19334753D02*
X101086753Y-19334753D01*
X100781953Y-27001753D02*
X99740553Y-27001753D01*
X101471000Y-19715000D02*
X101467753Y-26315953D01*
X102080753Y-16978247D02*
X102080753Y-15327247D01*
X102449493Y-14934630D02*
X109061953Y-14946247D01*
X103238871Y-10880150D02*
X106820000Y-10851732D01*
X103289435Y-12958209D02*
X103292410Y-11904878D01*
X103289435Y-12958209D02*
X106870564Y-12929791D01*
X106870564Y-12929791D02*
X106873539Y-11876460D01*
X109061953Y-17359247D02*
X102461000Y-17365000D01*
X109747753Y-15632047D02*
X109747753Y-16673447D01*
X99054753Y-19715000D02*
G75*
G02*
X99435753Y-19334003I380867J130D01*
G01*
X99054753Y-26315953D02*
G75*
G02*
X99740546Y-27001749I247747J-438047D01*
G01*
X100781953Y-27001753D02*
G75*
G02*
X101467753Y-26315953I438047J247753D01*
G01*
X101090000Y-19334000D02*
G75*
G02*
X101471000Y-19715000I0J-381000D01*
G01*
X102080753Y-15327247D02*
G75*
G02*
X102449493Y-14934629I378647J13847D01*
G01*
X102461000Y-17365000D02*
G75*
G02*
X102080000Y-16984000I0J381000D01*
G01*
X103238871Y-10880150D02*
G75*
G02*
X103292410Y-11904878I-166461J-522460D01*
G01*
X106873539Y-11876460D02*
G75*
G02*
X106820000Y-10851732I166461J522460D01*
G01*
X109061953Y-17359247D02*
G75*
G02*
X109747753Y-16673447I438047J247753D01*
G01*
X109747753Y-15632047D02*
G75*
G02*
X109061953Y-14946247I-247753J438047D01*
G01*
%TD*%
M02*
