M48
; DRILL file {KiCad 8.0.7} date 2025-05-18T22:24:01+0900
; FORMAT={-:-/ absolute / metric / decimal}
; #@! TF.CreationDate,2025-05-18T22:24:01+09:00
; #@! TF.GenerationSoftware,Kicad,Pcbnew,8.0.7
; #@! TF.FileFunction,NonPlated,1,2,NPTH
FMAT,2
METRIC
; #@! TA.AperFunction,NonPlated,NPTH,ComponentDrill
T1C1.900
; #@! TA.AperFunction,NonPlated,NPTH,ComponentDrill
T2C3.000
; #@! TA.AperFunction,NonPlated,NPTH,ComponentDrill
T3C5.000
%
G90
G05
T1
X8.17Y-16.34
X12.42Y-34.34
X19.17Y-16.34
X20.92Y-52.34
X23.42Y-34.34
X26.17Y-16.34
X30.42Y-34.34
X31.92Y-52.34
X37.17Y-16.34
X38.92Y-52.34
X41.42Y-34.34
X41.72Y-70.34
X44.17Y-16.34
X48.42Y-34.34
X49.92Y-52.34
X52.72Y-70.34
X55.17Y-16.34
X56.92Y-52.34
X59.42Y-34.34
X59.72Y-70.34
X62.17Y-16.34
X66.42Y-34.34
X67.92Y-52.34
X70.72Y-70.34
X73.17Y-16.34
X74.92Y-52.34
X77.42Y-34.34
X80.17Y-16.34
X82.62Y-70.34
X84.42Y-34.34
X85.92Y-52.34
X91.17Y-16.34
X92.92Y-52.34
X93.62Y-70.34
X95.42Y-34.34
X103.92Y-52.34
X119.17Y-16.34
X123.42Y-34.34
X130.17Y-16.34
X131.92Y-52.34
X132.22Y-70.34
X134.42Y-34.34
X137.17Y-16.34
X141.42Y-34.34
X142.92Y-52.34
X143.22Y-70.34
X148.17Y-16.34
X149.92Y-52.34
X152.42Y-34.34
X155.12Y-70.34
X155.17Y-16.34
X159.42Y-34.34
X160.92Y-52.34
X166.12Y-70.34
X166.17Y-16.34
X167.92Y-52.34
X170.42Y-34.34
X173.12Y-70.34
X173.17Y-16.34
X177.42Y-34.34
X178.92Y-52.34
X184.12Y-70.34
X184.17Y-16.34
X185.92Y-52.34
X188.42Y-34.34
X191.17Y-16.34
X195.42Y-34.34
X196.92Y-52.34
X202.17Y-16.34
X203.92Y-52.34
X206.42Y-34.34
X214.92Y-52.34
T2
X8.67Y-20.04
X12.92Y-38.04
X13.67Y-22.24
X17.92Y-40.24
X21.42Y-56.04
X26.42Y-58.24
X26.67Y-20.04
X30.92Y-38.04
X31.67Y-22.24
X35.92Y-40.24
X39.42Y-56.04
X42.22Y-74.04
X44.42Y-58.24
X44.67Y-20.04
X47.22Y-76.24
X48.92Y-38.04
X49.67Y-22.24
X53.92Y-40.24
X57.42Y-56.04
X60.22Y-74.04
X62.42Y-58.24
X62.67Y-20.04
X65.22Y-76.24
X66.92Y-38.04
X67.67Y-22.24
X71.92Y-40.24
X75.42Y-56.04
X80.42Y-58.24
X80.67Y-20.04
X83.12Y-74.04
X84.92Y-38.04
X85.67Y-22.24
X88.12Y-76.24
X89.92Y-40.24
X93.42Y-56.04
X98.42Y-58.24
X119.67Y-20.04
X123.92Y-38.04
X124.67Y-22.24
X128.92Y-40.24
X132.42Y-56.04
X132.72Y-74.04
X137.42Y-58.24
X137.67Y-20.04
X137.72Y-76.24
X141.92Y-38.04
X142.67Y-22.24
X146.92Y-40.24
X150.42Y-56.04
X155.42Y-58.24
X155.62Y-74.04
X155.67Y-20.04
X159.92Y-38.04
X160.62Y-76.24
X160.67Y-22.24
X164.92Y-40.24
X168.42Y-56.04
X173.42Y-58.24
X173.62Y-74.04
X173.67Y-20.04
X177.92Y-38.04
X178.62Y-76.24
X178.67Y-22.24
X182.92Y-40.24
X186.42Y-56.04
X191.42Y-58.24
X191.67Y-20.04
X195.92Y-38.04
X196.67Y-22.24
X200.92Y-40.24
X204.42Y-56.04
X209.42Y-58.24
T3
X13.67Y-16.34
X17.92Y-34.34
X26.42Y-52.34
X31.67Y-16.34
X35.92Y-34.34
X44.42Y-52.34
X47.22Y-70.34
X49.67Y-16.34
X53.92Y-34.34
X62.42Y-52.34
X65.22Y-70.34
X67.67Y-16.34
X71.92Y-34.34
X80.42Y-52.34
X85.67Y-16.34
X88.12Y-70.34
X89.92Y-34.34
X98.42Y-52.34
X124.67Y-16.34
X128.92Y-34.34
X137.42Y-52.34
X137.72Y-70.34
X142.67Y-16.34
X146.92Y-34.34
X155.42Y-52.34
X160.62Y-70.34
X160.67Y-16.34
X164.92Y-34.34
X173.42Y-52.34
X178.62Y-70.34
X178.67Y-16.34
X182.92Y-34.34
X191.42Y-52.34
X196.67Y-16.34
X200.92Y-34.34
X209.42Y-52.34
M30
