%TF.GenerationSoftware,KiCad,Pcbnew,8.0.7*%
%TF.CreationDate,2025-05-18T22:23:59+09:00*%
%TF.ProjectId,cool436,636f6f6c-3433-4362-9e6b-696361645f70,rev?*%
%TF.SameCoordinates,Original*%
%TF.FileFunction,Soldermask,Bot*%
%TF.FilePolarity,Negative*%
%FSLAX46Y46*%
G04 Gerber Fmt 4.6, Leading zero omitted, Abs format (unit mm)*
G04 Created by KiCad (PCBNEW 8.0.7) date 2025-05-18 22:23:59*
%MOMM*%
%LPD*%
G01*
G04 APERTURE LIST*
%ADD10C,3.000000*%
%ADD11O,2.200000X1.500000*%
%ADD12R,2.600000X2.600000*%
%ADD13R,1.300000X0.950000*%
%ADD14O,1.000000X1.300000*%
%ADD15R,2.000000X2.000000*%
%ADD16C,2.000000*%
%ADD17O,2.750000X1.800000*%
%ADD18C,1.500000*%
%ADD19C,1.524000*%
G04 APERTURE END LIST*
D10*
%TO.C,SW6*%
X30920000Y-38040000D03*
X35920000Y-40240000D03*
D11*
X41470000Y-29340000D03*
D12*
X27620000Y-38040000D03*
X39220000Y-40240000D03*
%TD*%
D10*
%TO.C,SW22*%
X123920000Y-38040000D03*
X128920000Y-40240000D03*
D11*
X134470000Y-29340000D03*
D12*
X120620000Y-38040000D03*
X132220000Y-40240000D03*
%TD*%
D10*
%TO.C,SW14*%
X66920000Y-38040000D03*
X71920000Y-40240000D03*
D11*
X77470000Y-29340000D03*
D12*
X63620000Y-38040000D03*
X75220000Y-40240000D03*
%TD*%
D13*
%TO.C,D6*%
X41175000Y-43360000D03*
X44725000Y-43360000D03*
%TD*%
D10*
%TO.C,SW13*%
X62670000Y-20040000D03*
X67670000Y-22240000D03*
D11*
X73220000Y-11340000D03*
D12*
X59370000Y-20040000D03*
X70970000Y-22240000D03*
%TD*%
D10*
%TO.C,SW24*%
X173620000Y-74040000D03*
X178620000Y-76240000D03*
D11*
X184170000Y-65340000D03*
D12*
X170320000Y-74040000D03*
X181920000Y-76240000D03*
%TD*%
D13*
%TO.C,D7*%
X47005000Y-61390000D03*
X50555000Y-61390000D03*
%TD*%
D10*
%TO.C,SW27*%
X141920000Y-38040000D03*
X146920000Y-40240000D03*
D11*
X152470000Y-29340000D03*
D12*
X138620000Y-38040000D03*
X150220000Y-40240000D03*
%TD*%
D13*
%TO.C,D27*%
X138145000Y-43340000D03*
X141695000Y-43340000D03*
%TD*%
%TO.C,D33*%
X170925000Y-25330000D03*
X174475000Y-25330000D03*
%TD*%
%TO.C,D18*%
X95165000Y-43310000D03*
X98715000Y-43310000D03*
%TD*%
D10*
%TO.C,SW23*%
X132420000Y-56040000D03*
X137420000Y-58240000D03*
D11*
X142970000Y-47340000D03*
D12*
X129120000Y-56040000D03*
X140720000Y-58240000D03*
%TD*%
D13*
%TO.C,D4*%
X53365000Y-61470000D03*
X56915000Y-61470000D03*
%TD*%
D10*
%TO.C,SW3*%
X21420000Y-56040000D03*
X26420000Y-58240000D03*
D11*
X31970000Y-47340000D03*
D12*
X18120000Y-56040000D03*
X29720000Y-58240000D03*
%TD*%
D10*
%TO.C,SW34*%
X191670000Y-20040000D03*
X196670000Y-22240000D03*
D11*
X202220000Y-11340000D03*
D12*
X188370000Y-20040000D03*
X199970000Y-22240000D03*
%TD*%
D10*
%TO.C,SW26*%
X159920000Y-38040000D03*
X164920000Y-40240000D03*
D11*
X170470000Y-29340000D03*
D12*
X156620000Y-38040000D03*
X168220000Y-40240000D03*
%TD*%
D10*
%TO.C,SW4*%
X42220000Y-74040000D03*
X47220000Y-76240000D03*
D11*
X52770000Y-65340000D03*
D12*
X38920000Y-74040000D03*
X50520000Y-76240000D03*
%TD*%
D13*
%TO.C,D22*%
X120080000Y-43350000D03*
X123630000Y-43350000D03*
%TD*%
%TO.C,D26*%
X157085000Y-43320000D03*
X160635000Y-43320000D03*
%TD*%
D14*
%TO.C,SW45*%
X216560000Y-12290000D03*
X216560000Y-14790000D03*
X216560000Y-17290000D03*
%TD*%
D13*
%TO.C,D23*%
X129465000Y-61310000D03*
X133015000Y-61310000D03*
%TD*%
D10*
%TO.C,SW20*%
X155620000Y-74040000D03*
X160620000Y-76240000D03*
D11*
X166170000Y-65340000D03*
D12*
X152320000Y-74040000D03*
X163920000Y-76240000D03*
%TD*%
D10*
%TO.C,SW12*%
X83120000Y-74040000D03*
X88120000Y-76240000D03*
D11*
X93670000Y-65340000D03*
D12*
X79820000Y-74040000D03*
X91420000Y-76240000D03*
%TD*%
D10*
%TO.C,SW33*%
X173670000Y-20040000D03*
X178670000Y-22240000D03*
D11*
X184220000Y-11340000D03*
D12*
X170370000Y-20040000D03*
X181970000Y-22240000D03*
%TD*%
D13*
%TO.C,D32*%
X165655000Y-61340000D03*
X169205000Y-61340000D03*
%TD*%
D10*
%TO.C,SW1*%
X8670000Y-20040000D03*
X13670000Y-22240000D03*
D11*
X19220000Y-11340000D03*
D12*
X5370000Y-20040000D03*
X16970000Y-22240000D03*
%TD*%
D10*
%TO.C,SW29*%
X155670000Y-20040000D03*
X160670000Y-22240000D03*
D11*
X166220000Y-11340000D03*
D12*
X152370000Y-20040000D03*
X163970000Y-22240000D03*
%TD*%
D10*
%TO.C,SW31*%
X186420000Y-56040000D03*
X191420000Y-58240000D03*
D11*
X196970000Y-47340000D03*
D12*
X183120000Y-56040000D03*
X194720000Y-58240000D03*
%TD*%
D15*
%TO.C,BT1*%
X167170000Y-25290000D03*
D16*
X211970000Y-25290000D03*
%TD*%
D13*
%TO.C,D35*%
X192025000Y-43320000D03*
X195575000Y-43320000D03*
%TD*%
%TO.C,D19*%
X104020000Y-61140000D03*
X107570000Y-61140000D03*
%TD*%
D10*
%TO.C,SW35*%
X195920000Y-38040000D03*
X200920000Y-40240000D03*
D11*
X206470000Y-29340000D03*
D12*
X192620000Y-38040000D03*
X204220000Y-40240000D03*
%TD*%
D13*
%TO.C,D1*%
X17675000Y-25330000D03*
X21225000Y-25330000D03*
%TD*%
%TO.C,D5*%
X36945000Y-25340000D03*
X40495000Y-25340000D03*
%TD*%
%TO.C,D10*%
X59215000Y-43310000D03*
X62765000Y-43310000D03*
%TD*%
D10*
%TO.C,SW9*%
X44670000Y-20040000D03*
X49670000Y-22240000D03*
D11*
X55220000Y-11340000D03*
D12*
X41370000Y-20040000D03*
X52970000Y-22240000D03*
%TD*%
D10*
%TO.C,SW19*%
X93420000Y-56040000D03*
X98420000Y-58240000D03*
D11*
X103970000Y-47340000D03*
D12*
X90120000Y-56040000D03*
X101720000Y-58240000D03*
%TD*%
D13*
%TO.C,D14*%
X76135000Y-43330000D03*
X79685000Y-43330000D03*
%TD*%
%TO.C,D31*%
X183705000Y-61360000D03*
X187255000Y-61360000D03*
%TD*%
%TO.C,D15*%
X84655000Y-61330000D03*
X88205000Y-61330000D03*
%TD*%
%TO.C,D3*%
X30695000Y-61420000D03*
X34245000Y-61420000D03*
%TD*%
%TO.C,D12*%
X90815000Y-61300000D03*
X94365000Y-61300000D03*
%TD*%
D10*
%TO.C,SW15*%
X75420000Y-56040000D03*
X80420000Y-58240000D03*
D11*
X85970000Y-47340000D03*
D12*
X72120000Y-56040000D03*
X83720000Y-58240000D03*
%TD*%
D15*
%TO.C,BT2*%
X9630000Y-25560000D03*
D16*
X54430000Y-25560000D03*
%TD*%
D13*
%TO.C,D8*%
X73505000Y-61280000D03*
X77055000Y-61280000D03*
%TD*%
%TO.C,D25*%
X146935000Y-25310000D03*
X150485000Y-25310000D03*
%TD*%
D10*
%TO.C,SW2*%
X12920000Y-38040000D03*
X17920000Y-40240000D03*
D11*
X23470000Y-29340000D03*
D12*
X9620000Y-38040000D03*
X21220000Y-40240000D03*
%TD*%
D10*
%TO.C,SW8*%
X60220000Y-74040000D03*
X65220000Y-76240000D03*
D11*
X70770000Y-65340000D03*
D12*
X56920000Y-74040000D03*
X68520000Y-76240000D03*
%TD*%
D10*
%TO.C,SW16*%
X132720000Y-74040000D03*
X137720000Y-76240000D03*
D11*
X143270000Y-65340000D03*
D12*
X129420000Y-74040000D03*
X141020000Y-76240000D03*
%TD*%
D10*
%TO.C,SW17*%
X80670000Y-20040000D03*
X85670000Y-22240000D03*
D11*
X91220000Y-11340000D03*
D12*
X77370000Y-20040000D03*
X88970000Y-22240000D03*
%TD*%
D13*
%TO.C,D2*%
X23275000Y-43280000D03*
X26825000Y-43280000D03*
%TD*%
%TO.C,D13*%
X72935000Y-25300000D03*
X76485000Y-25300000D03*
%TD*%
D10*
%TO.C,SW36*%
X204420000Y-56040000D03*
X209420000Y-58240000D03*
D11*
X214970000Y-47340000D03*
D12*
X201120000Y-56040000D03*
X212720000Y-58240000D03*
%TD*%
D13*
%TO.C,D20*%
X159375000Y-61240000D03*
X162925000Y-61240000D03*
%TD*%
D10*
%TO.C,SW32*%
X168420000Y-56040000D03*
X173420000Y-58240000D03*
D11*
X178970000Y-47340000D03*
D12*
X165120000Y-56040000D03*
X176720000Y-58240000D03*
%TD*%
D10*
%TO.C,SW7*%
X39420000Y-56040000D03*
X44420000Y-58240000D03*
D11*
X49970000Y-47340000D03*
D12*
X36120000Y-56040000D03*
X47720000Y-58240000D03*
%TD*%
D13*
%TO.C,D24*%
X177585000Y-61330000D03*
X181135000Y-61330000D03*
%TD*%
D10*
%TO.C,SW21*%
X119670000Y-20040000D03*
X124670000Y-22240000D03*
D11*
X130220000Y-11340000D03*
D12*
X116370000Y-20040000D03*
X127970000Y-22240000D03*
%TD*%
D13*
%TO.C,D30*%
X175145000Y-43380000D03*
X178695000Y-43380000D03*
%TD*%
%TO.C,D17*%
X78815000Y-25290000D03*
X82365000Y-25290000D03*
%TD*%
%TO.C,D28*%
X148215000Y-61310000D03*
X151765000Y-61310000D03*
%TD*%
D10*
%TO.C,SW5*%
X26670000Y-20040000D03*
X31670000Y-22240000D03*
D11*
X37220000Y-11340000D03*
D12*
X23370000Y-20040000D03*
X34970000Y-22240000D03*
%TD*%
D10*
%TO.C,SW11*%
X57420000Y-56040000D03*
X62420000Y-58240000D03*
D11*
X67970000Y-47340000D03*
D12*
X54120000Y-56040000D03*
X65720000Y-58240000D03*
%TD*%
D13*
%TO.C,D34*%
X187935000Y-25380000D03*
X191485000Y-25380000D03*
%TD*%
%TO.C,D36*%
X200595000Y-61280000D03*
X204145000Y-61280000D03*
%TD*%
%TO.C,D16*%
X141460000Y-61280000D03*
X145010000Y-61280000D03*
%TD*%
%TO.C,D29*%
X152995000Y-25290000D03*
X156545000Y-25290000D03*
%TD*%
%TO.C,D9*%
X57235000Y-25260000D03*
X60785000Y-25260000D03*
%TD*%
D16*
%TO.C,SW46*%
X104780000Y-33250000D03*
X111280000Y-33250000D03*
%TD*%
D13*
%TO.C,D21*%
X128875000Y-25280000D03*
X132425000Y-25280000D03*
%TD*%
%TO.C,D11*%
X65770000Y-61350000D03*
X69320000Y-61350000D03*
%TD*%
D10*
%TO.C,SW30*%
X177920000Y-38040000D03*
X182920000Y-40240000D03*
D11*
X188470000Y-29340000D03*
D12*
X174620000Y-38040000D03*
X186220000Y-40240000D03*
%TD*%
D10*
%TO.C,SW18*%
X84920000Y-38040000D03*
X89920000Y-40240000D03*
D11*
X95470000Y-29340000D03*
D12*
X81620000Y-38040000D03*
X93220000Y-40240000D03*
%TD*%
D10*
%TO.C,SW28*%
X150420000Y-56040000D03*
X155420000Y-58240000D03*
D11*
X160970000Y-47340000D03*
D12*
X147120000Y-56040000D03*
X158720000Y-58240000D03*
%TD*%
D10*
%TO.C,SW10*%
X48920000Y-38040000D03*
X53920000Y-40240000D03*
D11*
X59470000Y-29340000D03*
D12*
X45620000Y-38040000D03*
X57220000Y-40240000D03*
%TD*%
D10*
%TO.C,SW25*%
X137670000Y-20040000D03*
X142670000Y-22240000D03*
D11*
X148220000Y-11340000D03*
D12*
X134370000Y-20040000D03*
X145970000Y-22240000D03*
%TD*%
D17*
%TO.C,U1*%
X113160000Y-9804000D03*
X113160000Y-12344000D03*
X113160000Y-14884000D03*
X113160000Y-17424000D03*
X113160000Y-19964000D03*
X113160000Y-22504000D03*
X113160000Y-25044000D03*
X96920000Y-25044000D03*
X96920000Y-22504000D03*
X96920000Y-19964000D03*
X96920000Y-17424000D03*
X96920000Y-14884000D03*
X96920000Y-12344000D03*
X96920000Y-9804000D03*
D18*
X101204600Y-26736000D03*
X99325000Y-26736000D03*
X109485000Y-17107000D03*
X109485000Y-15202000D03*
D19*
X106920000Y-11354000D03*
X103200000Y-11414000D03*
%TD*%
M02*
